<svg width="656" height="284" viewBox="0 0 656 284" fill="none" xmlns="http://www.w3.org/2000/svg">
<path d="M1.712 72C0.752 72 0.272 71.68 0.272 71.04C0.272 70.4 0.72 69.984 1.616 69.792L3.056 69.504C4.336 69.248 5.296 68.64 5.936 67.68C6.576 66.656 7.12 65.248 7.568 63.456L22.448 3.456C22.576 2.816 22.768 2.4 23.024 2.20799C23.344 2.016 23.632 1.92 23.888 1.92C24.208 1.92 24.496 2.016 24.752 2.20799C25.072 2.4 25.296 2.816 25.424 3.456L40.592 64.32C41.04 66.112 41.552 67.36 42.128 68.064C42.704 68.768 43.6 69.248 44.816 69.504L46.256 69.792C47.152 69.984 47.6 70.4 47.6 71.04C47.6 71.68 47.12 72 46.16 72H29.744C28.848 72 28.4 71.648 28.4 70.944C28.4 70.24 28.944 69.856 30.032 69.792L31.856 69.6C32.944 69.472 33.616 69.12 33.872 68.544C34.192 67.968 34.192 66.976 33.872 65.568L30.224 50.688C29.84 49.024 28.784 48.192 27.056 48.192H16.976C15.312 48.192 14.256 49.024 13.808 50.688L10.544 63.552C9.584 67.2 10.544 69.216 13.424 69.6L14.864 69.792C15.952 69.984 16.496 70.368 16.496 70.944C16.496 71.648 16.048 72 15.152 72H1.712ZM16.688 45.312H27.248C28.272 45.312 28.688 44.768 28.496 43.68L22.352 17.952H21.872L15.44 43.68C15.248 44.768 15.664 45.312 16.688 45.312ZM60.659 29.184C63.283 24.704 66.451 22.464 70.163 22.464C72.275 22.464 73.843 23.104 74.867 24.384C75.891 25.6 76.403 26.976 76.403 28.512C76.403 29.728 76.083 30.72 75.443 31.488C74.867 32.256 73.939 32.64 72.659 32.64C71.635 32.64 70.867 32.416 70.355 31.968C69.907 31.456 69.523 30.88 69.203 30.24C68.947 29.6 68.627 29.056 68.243 28.608C67.859 28.096 67.219 27.84 66.323 27.84C65.171 27.84 64.083 28.544 63.059 29.952C62.035 31.296 61.171 33.12 60.467 35.424C59.827 37.728 59.507 40.352 59.507 43.296V65.568C59.507 66.912 59.699 67.872 60.083 68.448C60.531 69.024 61.427 69.376 62.771 69.504L65.363 69.792C66.067 69.92 66.419 70.272 66.419 70.848C66.419 71.616 65.939 72 64.979 72H48.755C47.795 72 47.315 71.648 47.315 70.944C47.315 70.368 47.731 69.984 48.563 69.792L49.715 69.6C51.059 69.344 51.923 68.96 52.307 68.448C52.755 67.872 52.979 66.912 52.979 65.568V33.312C52.979 32.16 52.787 31.392 52.403 31.008C52.083 30.56 51.475 30.272 50.579 30.144L48.563 29.856C47.731 29.792 47.315 29.44 47.315 28.8C47.315 28.288 47.827 27.936 48.851 27.744C50.835 27.424 52.339 26.912 53.363 26.208C54.451 25.504 55.571 24.64 56.723 23.616C57.299 23.04 57.779 22.752 58.163 22.752C58.739 22.752 59.027 23.136 59.027 23.904V29.088C59.027 29.536 59.219 29.824 59.603 29.952C59.987 30.016 60.339 29.76 60.659 29.184ZM87.3815 13.92C86.0375 13.92 84.8855 13.44 83.9255 12.48C83.0295 11.52 82.5815 10.304 82.5815 8.832C82.5815 7.35999 83.0295 6.17599 83.9255 5.27999C84.8855 4.32 86.0375 3.84 87.3815 3.84C88.7255 3.84 89.8455 4.32 90.7415 5.27999C91.6375 6.17599 92.0855 7.35999 92.0855 8.832C92.0855 10.304 91.6375 11.52 90.7415 12.48C89.8455 13.44 88.7255 13.92 87.3815 13.92ZM79.3175 72C78.3575 72 77.8775 71.648 77.8775 70.944C77.8775 70.368 78.2935 69.984 79.1255 69.792L80.2775 69.6C81.8775 69.344 82.9015 68.96 83.3495 68.448C83.7975 67.872 84.0215 66.912 84.0215 65.568V33.312C84.0215 32.16 83.8295 31.392 83.4455 31.008C83.1255 30.56 82.5175 30.272 81.6215 30.144L79.6055 29.856C78.7735 29.792 78.3575 29.44 78.3575 28.8C78.3575 28.288 78.8695 27.936 79.8935 27.744C81.8775 27.424 83.4775 26.912 84.6935 26.208C85.9095 25.504 87.0935 24.64 88.2455 23.616C88.8215 23.04 89.3015 22.752 89.6855 22.752C90.2615 22.752 90.5495 23.136 90.5495 23.904V65.568C90.5495 66.912 90.7415 67.872 91.1255 68.448C91.5095 69.024 92.2455 69.376 93.3335 69.504L95.7335 69.792C96.4375 69.92 96.7895 70.272 96.7895 70.848C96.7895 71.616 96.3095 72 95.3495 72H79.3175ZM110.389 72.864C108.917 72.864 107.349 72.672 105.685 72.288C104.021 71.968 102.677 71.552 101.653 71.04C101.077 70.72 100.789 70.176 100.789 69.408L100.501 58.656C100.501 57.568 100.917 57.024 101.749 57.024C102.453 57.024 102.933 57.536 103.189 58.56C104.277 63.104 105.589 66.208 107.125 67.872C108.725 69.536 110.645 70.368 112.885 70.368C114.741 70.368 116.277 69.664 117.493 68.256C118.709 66.784 119.317 64.768 119.317 62.208C119.317 59.648 118.613 57.376 117.205 55.392C115.797 53.408 113.429 51.232 110.101 48.864C106.773 46.624 104.341 44.384 102.805 42.144C101.269 39.84 100.501 37.344 100.501 34.656C100.501 31.008 101.781 28.064 104.341 25.824C106.901 23.584 110.293 22.464 114.517 22.464C115.797 22.464 117.045 22.624 118.261 22.944C119.477 23.2 120.565 23.648 121.525 24.288C122.101 24.672 122.389 25.184 122.389 25.824L122.581 36.384C122.581 37.344 122.197 37.824 121.429 37.824C120.981 37.824 120.661 37.696 120.469 37.44C120.277 37.12 120.117 36.736 119.989 36.288C118.709 32.128 117.429 29.248 116.149 27.648C114.869 25.984 113.301 25.152 111.445 25.152C109.781 25.152 108.405 25.728 107.317 26.88C106.229 28.032 105.685 29.472 105.685 31.2C105.685 33.44 106.357 35.392 107.701 37.056C109.045 38.72 111.477 40.768 114.997 43.2C118.197 45.504 120.597 48 122.197 50.688C123.861 53.312 124.693 56.192 124.693 59.328C124.693 63.424 123.381 66.72 120.757 69.216C118.133 71.648 114.677 72.864 110.389 72.864ZM141.456 72.864C139.216 72.864 137.36 72.096 135.888 70.56C134.48 68.96 133.776 66.368 133.776 62.784V26.88C133.776 26.112 133.392 25.728 132.624 25.728H129.84C128.816 25.728 128.304 25.344 128.304 24.576C128.304 24.064 128.592 23.616 129.168 23.232C131.28 21.76 132.976 20.192 134.256 18.528C135.536 16.8 136.656 14.464 137.616 11.52C138.064 10.176 138.608 9.504 139.248 9.504C139.952 9.504 140.304 10.016 140.304 11.04V21.696C140.304 22.592 140.752 23.04 141.648 23.04H147.888C148.912 23.04 149.424 23.488 149.424 24.384C149.424 25.28 148.912 25.728 147.888 25.728H141.648C140.752 25.728 140.304 26.176 140.304 27.072V62.88C140.304 64.288 140.528 65.408 140.976 66.24C141.424 67.008 142.256 67.392 143.472 67.392C144.816 67.392 145.904 66.72 146.736 65.376C147.632 64.032 148.208 61.856 148.464 58.848C148.592 57.952 149.008 57.504 149.712 57.504C150.48 57.504 150.864 57.984 150.864 58.944C150.672 63.872 149.648 67.424 147.792 69.6C146 71.776 143.888 72.864 141.456 72.864ZM163.708 72.864C161.02 72.864 158.812 72.032 157.084 70.368C155.356 68.64 154.492 66.368 154.492 63.552C154.492 60.8 155.356 58.208 157.084 55.776C158.812 53.28 161.18 51.04 164.188 49.056C167.196 47.072 170.62 45.472 174.46 44.256C175.292 44 175.708 43.456 175.708 42.624V33.888C175.708 30.816 175.228 28.64 174.268 27.36C173.308 26.016 171.996 25.344 170.332 25.344C168.732 25.344 167.26 26.08 165.916 27.552C164.636 28.96 163.708 31.36 163.132 34.752C162.812 36.8 162.108 38.304 161.02 39.264C159.996 40.16 158.94 40.608 157.852 40.608C156.06 40.608 155.164 39.712 155.164 37.92C155.164 36.064 155.676 34.24 156.7 32.448C157.788 30.592 159.196 28.928 160.924 27.456C162.652 25.92 164.54 24.704 166.588 23.808C168.636 22.912 170.684 22.464 172.732 22.464C179.068 22.464 182.236 26.144 182.236 33.504V62.88C182.236 65.568 182.908 66.912 184.252 66.912C185.084 66.912 185.852 66.368 186.556 65.28C187.26 64.128 187.612 62.208 187.612 59.52C187.612 58.496 188.028 57.984 188.86 57.984C189.628 57.984 190.012 58.528 190.012 59.616C190.012 64.288 189.18 67.68 187.516 69.792C185.916 71.84 184.092 72.864 182.044 72.864C180.508 72.864 179.292 72.256 178.396 71.04C177.5 69.76 176.892 68.256 176.572 66.528C176.508 65.888 176.22 65.568 175.708 65.568C175.26 65.504 174.812 65.792 174.364 66.432C172.828 68.544 171.26 70.144 169.66 71.232C168.06 72.32 166.076 72.864 163.708 72.864ZM166.299 68.448C167.964 68.448 169.5 67.872 170.908 66.72C172.316 65.504 173.468 63.904 174.364 61.92C175.26 59.936 175.708 57.696 175.708 55.2V48.192C175.708 46.976 175.036 46.624 173.692 47.136C169.788 48.544 166.748 50.496 164.572 52.992C162.46 55.424 161.404 58.368 161.404 61.824C161.404 66.24 163.036 68.448 166.299 68.448ZM217.788 13.92C216.444 13.92 215.292 13.44 214.332 12.48C213.436 11.52 212.988 10.304 212.988 8.832C212.988 7.35999 213.436 6.17599 214.332 5.27999C215.292 4.32 216.444 3.84 217.788 3.84C219.132 3.84 220.252 4.32 221.148 5.27999C222.044 6.17599 222.492 7.35999 222.492 8.832C222.492 10.304 222.044 11.52 221.148 12.48C220.252 13.44 219.132 13.92 217.788 13.92ZM209.724 72C208.764 72 208.284 71.648 208.284 70.944C208.284 70.368 208.7 69.984 209.532 69.792L210.684 69.6C212.284 69.344 213.308 68.96 213.756 68.448C214.204 67.872 214.428 66.912 214.428 65.568V33.312C214.428 32.16 214.236 31.392 213.852 31.008C213.532 30.56 212.924 30.272 212.028 30.144L210.012 29.856C209.18 29.792 208.764 29.44 208.764 28.8C208.764 28.288 209.276 27.936 210.3 27.744C212.284 27.424 213.884 26.912 215.1 26.208C216.316 25.504 217.5 24.64 218.652 23.616C219.228 23.04 219.708 22.752 220.092 22.752C220.668 22.752 220.956 23.136 220.956 23.904V65.568C220.956 66.912 221.148 67.872 221.532 68.448C221.916 69.024 222.652 69.376 223.74 69.504L226.14 69.792C226.844 69.92 227.196 70.272 227.196 70.848C227.196 71.616 226.716 72 225.756 72H209.724ZM240.795 72.864C239.323 72.864 237.755 72.672 236.091 72.288C234.427 71.968 233.083 71.552 232.059 71.04C231.483 70.72 231.195 70.176 231.195 69.408L230.907 58.656C230.907 57.568 231.323 57.024 232.155 57.024C232.859 57.024 233.339 57.536 233.595 58.56C234.683 63.104 235.995 66.208 237.531 67.872C239.131 69.536 241.051 70.368 243.291 70.368C245.147 70.368 246.683 69.664 247.899 68.256C249.115 66.784 249.723 64.768 249.723 62.208C249.723 59.648 249.019 57.376 247.611 55.392C246.203 53.408 243.835 51.232 240.507 48.864C237.179 46.624 234.747 44.384 233.211 42.144C231.675 39.84 230.907 37.344 230.907 34.656C230.907 31.008 232.187 28.064 234.747 25.824C237.307 23.584 240.699 22.464 244.923 22.464C246.203 22.464 247.451 22.624 248.667 22.944C249.883 23.2 250.971 23.648 251.931 24.288C252.507 24.672 252.795 25.184 252.795 25.824L252.987 36.384C252.987 37.344 252.603 37.824 251.835 37.824C251.387 37.824 251.067 37.696 250.875 37.44C250.683 37.12 250.523 36.736 250.395 36.288C249.115 32.128 247.835 29.248 246.555 27.648C245.275 25.984 243.707 25.152 241.851 25.152C240.187 25.152 238.811 25.728 237.723 26.88C236.635 28.032 236.091 29.472 236.091 31.2C236.091 33.44 236.763 35.392 238.107 37.056C239.451 38.72 241.883 40.768 245.403 43.2C248.603 45.504 251.003 48 252.603 50.688C254.267 53.312 255.099 56.192 255.099 59.328C255.099 63.424 253.787 66.72 251.163 69.216C248.539 71.648 245.083 72.864 240.795 72.864ZM288.174 72.864C285.935 72.864 284.079 72.096 282.607 70.56C281.199 68.96 280.495 66.368 280.495 62.784V26.88C280.495 26.112 280.111 25.728 279.343 25.728H276.559C275.535 25.728 275.023 25.344 275.023 24.576C275.023 24.064 275.311 23.616 275.887 23.232C277.999 21.76 279.695 20.192 280.975 18.528C282.255 16.8 283.375 14.464 284.335 11.52C284.783 10.176 285.327 9.504 285.967 9.504C286.671 9.504 287.023 10.016 287.023 11.04V21.696C287.023 22.592 287.471 23.04 288.367 23.04H294.607C295.631 23.04 296.143 23.488 296.143 24.384C296.143 25.28 295.631 25.728 294.607 25.728H288.367C287.471 25.728 287.023 26.176 287.023 27.072V62.88C287.023 64.288 287.247 65.408 287.695 66.24C288.143 67.008 288.975 67.392 290.191 67.392C291.535 67.392 292.623 66.72 293.455 65.376C294.351 64.032 294.927 61.856 295.183 58.848C295.311 57.952 295.727 57.504 296.431 57.504C297.199 57.504 297.583 57.984 297.583 58.944C297.391 63.872 296.367 67.424 294.511 69.6C292.719 71.776 290.607 72.864 288.174 72.864ZM301.498 72C300.73 72 300.346 71.648 300.346 70.944C300.346 70.304 300.698 69.92 301.402 69.792L302.746 69.6C304.09 69.408 304.954 69.024 305.338 68.448C305.786 67.872 306.01 66.912 306.01 65.568V10.56C306.01 9.408 305.818 8.64 305.434 8.256C305.114 7.808 304.506 7.52 303.61 7.392L301.594 7.10399C300.89 6.976 300.538 6.592 300.538 5.952C300.538 5.312 300.89 4.928 301.594 4.8C303.386 4.416 304.89 3.968 306.106 3.456C307.322 2.94399 308.346 2.432 309.178 1.92C310.202 1.28 310.97 0.959999 311.482 0.959999C312.186 0.959999 312.538 1.472 312.538 2.496V27.936C312.538 28.512 312.73 28.864 313.114 28.992C313.498 29.056 313.978 28.832 314.554 28.32C316.986 26.08 319.13 24.544 320.986 23.712C322.842 22.88 324.794 22.464 326.842 22.464C329.85 22.464 332.218 23.488 333.946 25.536C335.674 27.52 336.538 30.464 336.538 34.368V65.568C336.538 66.912 336.73 67.872 337.114 68.448C337.562 68.96 338.458 69.312 339.802 69.504L341.914 69.792C342.618 69.92 342.97 70.304 342.97 70.944C342.97 71.648 342.586 72 341.818 72H325.69C324.794 72 324.346 71.648 324.346 70.944C324.346 70.304 324.698 69.92 325.402 69.792L326.746 69.6C328.09 69.408 328.954 69.024 329.338 68.448C329.786 67.872 330.01 66.912 330.01 65.568V35.424C330.01 32.288 329.434 30.08 328.282 28.8C327.13 27.52 325.498 26.88 323.386 26.88C321.338 26.88 319.482 27.488 317.818 28.704C316.218 29.856 314.938 31.424 313.978 33.408C313.018 35.328 312.538 37.472 312.538 39.84V65.568C312.538 66.912 312.73 67.872 313.114 68.448C313.562 69.024 314.458 69.376 315.802 69.504L318.394 69.792C319.098 69.92 319.45 70.304 319.45 70.944C319.45 71.648 319.066 72 318.298 72H301.498ZM362.432 72.864C359.36 72.864 356.608 71.84 354.176 69.792C351.744 67.744 349.792 64.864 348.32 61.152C346.912 57.376 346.208 53.024 346.208 48.096C346.208 43.04 346.944 38.592 348.416 34.752C349.888 30.912 351.904 27.904 354.464 25.728C357.024 23.552 359.872 22.464 363.008 22.464C366.784 22.464 369.824 24.032 372.128 27.168C374.496 30.24 375.68 35.264 375.68 42.24C375.68 44.352 374.88 45.408 373.28 45.408H355.04C353.76 45.408 353.12 46.144 353.12 47.616C353.12 54.4 354.112 59.488 356.096 62.88C358.08 66.272 360.608 67.968 363.68 67.968C366.112 67.968 368.096 67.104 369.632 65.376C371.168 63.648 372.416 60.736 373.376 56.64C373.568 55.936 373.984 55.584 374.624 55.584C375.392 55.584 375.68 56.224 375.488 57.504C374.464 63.2 372.832 67.2 370.592 69.504C368.352 71.744 365.632 72.864 362.432 72.864ZM354.752 43.008H364.448C367.52 43.008 369.056 41.408 369.056 38.208C369.056 34.048 368.544 30.784 367.52 28.416C366.496 26.048 364.96 24.864 362.912 24.864C360.416 24.864 358.304 26.304 356.576 29.184C354.912 32.064 353.824 36.16 353.312 41.472C353.184 42.496 353.664 43.008 354.752 43.008ZM397.03 91.68C396.07 91.68 395.59 91.328 395.59 90.624C395.59 89.92 396.006 89.536 396.838 89.472L398.182 89.28C399.526 89.088 400.39 88.704 400.773 88.128C401.222 87.552 401.446 86.592 401.446 85.248V33.312C401.446 32.16 401.254 31.392 400.87 31.008C400.55 30.56 399.942 30.272 399.046 30.144L397.03 29.856C396.198 29.792 395.782 29.44 395.782 28.8C395.782 28.288 396.294 27.936 397.318 27.744C399.302 27.424 400.806 26.912 401.83 26.208C402.918 25.504 404.038 24.64 405.19 23.616C405.766 23.04 406.246 22.752 406.63 22.752C407.206 22.752 407.494 23.136 407.494 23.904V26.88C407.494 27.328 407.686 27.648 408.07 27.84C408.454 27.968 408.902 27.776 409.414 27.264L410.47 26.208C411.75 24.928 413.062 24 414.406 23.424C415.75 22.784 417.286 22.464 419.014 22.464C421.958 22.464 424.55 23.456 426.79 25.44C429.094 27.36 430.886 30.048 432.166 33.504C433.51 36.96 434.182 41.024 434.182 45.696C434.182 51.008 433.35 55.712 431.686 59.808C430.022 63.904 427.718 67.104 424.774 69.408C421.894 71.712 418.566 72.864 414.79 72.864C412.87 72.864 411.174 72.512 409.702 71.808C408.55 71.296 407.974 71.648 407.974 72.864V85.248C407.974 86.592 408.166 87.488 408.549 87.936C408.998 88.448 409.894 88.8 411.238 88.992L414.79 89.472C415.494 89.6 415.846 89.952 415.846 90.528C415.846 91.296 415.366 91.68 414.406 91.68H397.03ZM415.078 70.464C418.662 70.464 421.542 68.352 423.718 64.128C425.958 59.904 427.078 54.208 427.078 47.04C427.078 40.448 426.118 35.424 424.198 31.968C422.278 28.512 419.558 26.784 416.038 26.784C413.862 26.784 411.974 27.68 410.374 29.472C408.774 31.264 407.974 33.76 407.974 36.96V61.152C407.974 64.032 408.614 66.304 409.894 67.968C411.238 69.632 412.966 70.464 415.078 70.464ZM451.878 29.184C454.502 24.704 457.67 22.464 461.382 22.464C463.494 22.464 465.062 23.104 466.086 24.384C467.11 25.6 467.622 26.976 467.622 28.512C467.622 29.728 467.302 30.72 466.662 31.488C466.086 32.256 465.158 32.64 463.878 32.64C462.854 32.64 462.086 32.416 461.574 31.968C461.126 31.456 460.742 30.88 460.422 30.24C460.166 29.6 459.846 29.056 459.462 28.608C459.078 28.096 458.438 27.84 457.542 27.84C456.39 27.84 455.302 28.544 454.278 29.952C453.254 31.296 452.39 33.12 451.686 35.424C451.046 37.728 450.726 40.352 450.726 43.296V65.568C450.726 66.912 450.918 67.872 451.302 68.448C451.75 69.024 452.646 69.376 453.99 69.504L456.582 69.792C457.286 69.92 457.638 70.272 457.638 70.848C457.638 71.616 457.158 72 456.198 72H439.974C439.014 72 438.534 71.648 438.534 70.944C438.534 70.368 438.95 69.984 439.782 69.792L440.934 69.6C442.278 69.344 443.142 68.96 443.526 68.448C443.974 67.872 444.198 66.912 444.198 65.568V33.312C444.198 32.16 444.006 31.392 443.622 31.008C443.302 30.56 442.694 30.272 441.798 30.144L439.782 29.856C438.95 29.792 438.534 29.44 438.534 28.8C438.534 28.288 439.046 27.936 440.07 27.744C442.054 27.424 443.558 26.912 444.582 26.208C445.67 25.504 446.79 24.64 447.942 23.616C448.518 23.04 448.998 22.752 449.382 22.752C449.958 22.752 450.246 23.136 450.246 23.904V29.088C450.246 29.536 450.438 29.824 450.822 29.952C451.206 30.016 451.558 29.76 451.878 29.184ZM486.088 72.864C483.016 72.864 480.264 71.84 477.832 69.792C475.4 67.744 473.448 64.864 471.976 61.152C470.568 57.376 469.864 53.024 469.864 48.096C469.864 43.04 470.6 38.592 472.072 34.752C473.544 30.912 475.56 27.904 478.12 25.728C480.68 23.552 483.528 22.464 486.664 22.464C490.44 22.464 493.48 24.032 495.784 27.168C498.152 30.24 499.336 35.264 499.336 42.24C499.336 44.352 498.536 45.408 496.936 45.408H478.696C477.416 45.408 476.776 46.144 476.776 47.616C476.776 54.4 477.768 59.488 479.752 62.88C481.736 66.272 484.264 67.968 487.336 67.968C489.768 67.968 491.752 67.104 493.288 65.376C494.824 63.648 496.072 60.736 497.032 56.64C497.224 55.936 497.64 55.584 498.28 55.584C499.048 55.584 499.336 56.224 499.144 57.504C498.12 63.2 496.488 67.2 494.248 69.504C492.008 71.744 489.288 72.864 486.088 72.864ZM478.408 43.008H488.104C491.176 43.008 492.712 41.408 492.712 38.208C492.712 34.048 492.2 30.784 491.176 28.416C490.152 26.048 488.616 24.864 486.568 24.864C484.072 24.864 481.96 26.304 480.232 29.184C478.568 32.064 477.48 36.16 476.968 41.472C476.84 42.496 477.32 43.008 478.408 43.008ZM504.661 72C503.701 72 503.221 71.648 503.221 70.944C503.221 70.368 503.637 69.984 504.469 69.792L505.621 69.6C506.965 69.344 507.829 68.96 508.213 68.448C508.661 67.872 508.885 66.912 508.885 65.568V33.312C508.885 32.16 508.693 31.392 508.309 31.008C507.989 30.56 507.381 30.272 506.485 30.144L504.469 29.856C503.637 29.792 503.221 29.44 503.221 28.8C503.221 28.288 503.733 27.936 504.757 27.744C506.741 27.424 508.245 26.912 509.269 26.208C510.357 25.504 511.477 24.64 512.629 23.616C513.205 23.04 513.685 22.752 514.069 22.752C514.645 22.752 514.933 23.136 514.933 23.904V28.224C514.933 28.672 515.125 29.024 515.509 29.28C515.893 29.472 516.309 29.344 516.757 28.896C519.381 26.4 521.653 24.704 523.573 23.808C525.557 22.912 527.541 22.464 529.525 22.464C531.381 22.464 533.013 22.976 534.421 24C535.893 24.96 536.981 26.432 537.685 28.416C537.877 28.928 538.197 29.248 538.645 29.376C539.157 29.44 539.637 29.248 540.085 28.8C542.709 26.368 544.981 24.704 546.901 23.808C548.821 22.912 550.773 22.464 552.757 22.464C555.445 22.464 557.621 23.488 559.285 25.536C561.013 27.52 561.877 30.464 561.877 34.368V65.568C561.877 66.912 562.069 67.872 562.453 68.448C562.901 68.96 563.797 69.312 565.141 69.504L567.253 69.792C567.957 69.92 568.309 70.304 568.309 70.944C568.309 71.648 567.925 72 567.157 72H550.741C549.845 72 549.397 71.648 549.397 70.944C549.397 70.304 549.749 69.92 550.453 69.792L551.797 69.6C553.269 69.408 554.229 69.024 554.677 68.448C555.125 67.872 555.349 66.912 555.349 65.568V35.424C555.349 32.288 554.773 30.08 553.621 28.8C552.533 27.52 551.029 26.88 549.109 26.88C547.189 26.88 545.429 27.488 543.829 28.704C542.293 29.856 541.045 31.424 540.085 33.408C539.125 35.328 538.645 37.472 538.645 39.84V65.568C538.645 66.912 538.869 67.872 539.317 68.448C539.765 68.96 540.693 69.312 542.101 69.504L544.213 69.792C544.917 69.92 545.269 70.304 545.269 70.944C545.269 71.648 544.885 72 544.117 72H527.797C526.901 72 526.453 71.648 526.453 70.944C526.453 70.304 526.805 69.92 527.509 69.792L528.853 69.6C530.197 69.408 531.061 69.024 531.445 68.448C531.893 67.872 532.117 66.912 532.117 65.568V35.424C532.117 32.288 531.541 30.08 530.389 28.8C529.301 27.52 527.797 26.88 525.877 26.88C523.957 26.88 522.197 27.488 520.597 28.704C519.061 29.856 517.813 31.424 516.853 33.408C515.893 35.328 515.413 37.472 515.413 39.84V65.568C515.413 66.912 515.605 67.872 515.989 68.448C516.437 69.024 517.333 69.376 518.677 69.504L521.269 69.792C521.973 69.92 522.325 70.272 522.325 70.848C522.325 71.616 521.845 72 520.885 72H504.661ZM580.319 13.92C578.975 13.92 577.823 13.44 576.863 12.48C575.967 11.52 575.519 10.304 575.519 8.832C575.519 7.35999 575.967 6.17599 576.863 5.27999C577.823 4.32 578.975 3.84 580.319 3.84C581.663 3.84 582.783 4.32 583.679 5.27999C584.575 6.17599 585.023 7.35999 585.023 8.832C585.023 10.304 584.575 11.52 583.679 12.48C582.783 13.44 581.663 13.92 580.319 13.92ZM572.255 72C571.295 72 570.815 71.648 570.815 70.944C570.815 70.368 571.231 69.984 572.063 69.792L573.215 69.6C574.815 69.344 575.839 68.96 576.287 68.448C576.735 67.872 576.959 66.912 576.959 65.568V33.312C576.959 32.16 576.767 31.392 576.383 31.008C576.063 30.56 575.455 30.272 574.559 30.144L572.543 29.856C571.711 29.792 571.295 29.44 571.295 28.8C571.295 28.288 571.807 27.936 572.831 27.744C574.815 27.424 576.415 26.912 577.631 26.208C578.847 25.504 580.031 24.64 581.183 23.616C581.759 23.04 582.239 22.752 582.623 22.752C583.199 22.752 583.487 23.136 583.487 23.904V65.568C583.487 66.912 583.679 67.872 584.063 68.448C584.447 69.024 585.183 69.376 586.271 69.504L588.671 69.792C589.375 69.92 589.727 70.272 589.727 70.848C589.727 71.616 589.247 72 588.287 72H572.255ZM609.182 72.864C606.11 72.864 603.358 71.84 600.926 69.792C598.494 67.744 596.542 64.864 595.07 61.152C593.662 57.376 592.958 53.024 592.958 48.096C592.958 43.04 593.694 38.592 595.166 34.752C596.638 30.912 598.654 27.904 601.214 25.728C603.774 23.552 606.622 22.464 609.758 22.464C613.534 22.464 616.574 24.032 618.878 27.168C621.246 30.24 622.43 35.264 622.43 42.24C622.43 44.352 621.63 45.408 620.03 45.408H601.79C600.51 45.408 599.87 46.144 599.87 47.616C599.87 54.4 600.862 59.488 602.846 62.88C604.83 66.272 607.358 67.968 610.43 67.968C612.862 67.968 614.846 67.104 616.382 65.376C617.918 63.648 619.166 60.736 620.126 56.64C620.318 55.936 620.734 55.584 621.374 55.584C622.142 55.584 622.43 56.224 622.238 57.504C621.214 63.2 619.582 67.2 617.342 69.504C615.102 71.744 612.382 72.864 609.182 72.864ZM601.502 43.008H611.198C614.27 43.008 615.806 41.408 615.806 38.208C615.806 34.048 615.294 30.784 614.27 28.416C613.246 26.048 611.71 24.864 609.662 24.864C607.166 24.864 605.054 26.304 603.326 29.184C601.662 32.064 600.574 36.16 600.062 41.472C599.934 42.496 600.414 43.008 601.502 43.008ZM639.659 29.184C642.283 24.704 645.451 22.464 649.163 22.464C651.275 22.464 652.843 23.104 653.867 24.384C654.891 25.6 655.403 26.976 655.403 28.512C655.403 29.728 655.083 30.72 654.443 31.488C653.867 32.256 652.939 32.64 651.659 32.64C650.635 32.64 649.867 32.416 649.355 31.968C648.907 31.456 648.523 30.88 648.203 30.24C647.947 29.6 647.627 29.056 647.243 28.608C646.859 28.096 646.219 27.84 645.323 27.84C644.171 27.84 643.083 28.544 642.059 29.952C641.035 31.296 640.171 33.12 639.467 35.424C638.827 37.728 638.507 40.352 638.507 43.296V65.568C638.507 66.912 638.699 67.872 639.083 68.448C639.531 69.024 640.427 69.376 641.771 69.504L644.363 69.792C645.067 69.92 645.419 70.272 645.419 70.848C645.419 71.616 644.939 72 643.979 72H627.755C626.795 72 626.315 71.648 626.315 70.944C626.315 70.368 626.731 69.984 627.563 69.792L628.715 69.6C630.059 69.344 630.923 68.96 631.307 68.448C631.755 67.872 631.979 66.912 631.979 65.568V33.312C631.979 32.16 631.787 31.392 631.403 31.008C631.083 30.56 630.475 30.272 629.579 30.144L627.563 29.856C626.731 29.792 626.315 29.44 626.315 28.8C626.315 28.288 626.827 27.936 627.851 27.744C629.835 27.424 631.339 26.912 632.363 26.208C633.451 25.504 634.571 24.64 635.723 23.616C636.299 23.04 636.779 22.752 637.163 22.752C637.739 22.752 638.027 23.136 638.027 23.904V29.088C638.027 29.536 638.219 29.824 638.603 29.952C638.987 30.016 639.339 29.76 639.659 29.184ZM4.592 168C3.824 168 3.44 167.648 3.44 166.944C3.44 166.304 3.792 165.92 4.496 165.792L5.84 165.6C7.184 165.408 8.048 165.024 8.432 164.448C8.88 163.872 9.104 162.912 9.104 161.568V106.56C9.104 105.408 8.912 104.64 8.528 104.256C8.208 103.808 7.6 103.52 6.704 103.392L4.688 103.104C3.984 102.976 3.632 102.592 3.632 101.952C3.632 101.312 3.984 100.928 4.688 100.8C6.48 100.416 7.984 99.968 9.2 99.456C10.416 98.944 11.44 98.432 12.272 97.92C13.296 97.28 14.064 96.96 14.576 96.96C15.28 96.96 15.632 97.472 15.632 98.496V123.936C15.632 124.512 15.824 124.864 16.208 124.992C16.592 125.056 17.072 124.832 17.648 124.32C20.08 122.08 22.224 120.544 24.08 119.712C25.936 118.88 27.888 118.464 29.936 118.464C32.944 118.464 35.312 119.488 37.04 121.536C38.768 123.52 39.632 126.464 39.632 130.368V161.568C39.632 162.912 39.824 163.872 40.208 164.448C40.656 164.96 41.552 165.312 42.896 165.504L45.008 165.792C45.712 165.92 46.064 166.304 46.064 166.944C46.064 167.648 45.68 168 44.912 168H28.784C27.888 168 27.44 167.648 27.44 166.944C27.44 166.304 27.792 165.92 28.496 165.792L29.84 165.6C31.184 165.408 32.048 165.024 32.432 164.448C32.88 163.872 33.104 162.912 33.104 161.568V131.424C33.104 128.288 32.528 126.08 31.376 124.8C30.224 123.52 28.592 122.88 26.48 122.88C24.432 122.88 22.576 123.488 20.912 124.704C19.312 125.856 18.032 127.424 17.072 129.408C16.112 131.328 15.632 133.472 15.632 135.84V161.568C15.632 162.912 15.824 163.872 16.208 164.448C16.656 165.024 17.552 165.376 18.896 165.504L21.488 165.792C22.192 165.92 22.544 166.304 22.544 166.944C22.544 167.648 22.16 168 21.392 168H4.592ZM66.5818 168.864C63.3178 168.864 60.3738 167.776 57.7498 165.6C55.1898 163.36 53.1418 160.32 51.6058 156.48C50.0698 152.64 49.3018 148.352 49.3018 143.616C49.3018 138.88 50.0698 134.624 51.6058 130.848C53.1418 127.072 55.2218 124.064 57.8458 121.824C60.4698 119.584 63.3818 118.464 66.5818 118.464C69.8458 118.464 72.7578 119.584 75.3177 121.824C77.9418 124.064 80.0218 127.072 81.5578 130.848C83.0938 134.624 83.8618 138.88 83.8618 143.616C83.8618 148.352 83.0938 152.64 81.5578 156.48C80.0858 160.32 78.0378 163.36 75.4138 165.6C72.7898 167.776 69.8458 168.864 66.5818 168.864ZM66.5818 166.464C73.2378 166.464 76.5658 158.848 76.5658 143.616C76.5658 128.448 73.2378 120.864 66.5818 120.864C59.9258 120.864 56.5978 128.448 56.5978 143.616C56.5978 158.848 59.9258 166.464 66.5818 166.464ZM89.1613 168C88.2013 168 87.7213 167.648 87.7213 166.944C87.7213 166.368 88.1373 165.984 88.9693 165.792L90.1213 165.6C91.4653 165.344 92.3293 164.96 92.7133 164.448C93.1613 163.872 93.3853 162.912 93.3853 161.568V129.312C93.3853 128.16 93.1933 127.392 92.8093 127.008C92.4893 126.56 91.8813 126.272 90.9853 126.144L88.9693 125.856C88.1373 125.792 87.7213 125.44 87.7213 124.8C87.7213 124.288 88.2333 123.936 89.2573 123.744C91.2413 123.424 92.7453 122.912 93.7693 122.208C94.8573 121.504 95.9773 120.64 97.1293 119.616C97.7053 119.04 98.1853 118.752 98.5693 118.752C99.1453 118.752 99.4333 119.136 99.4333 119.904V124.224C99.4333 124.8 99.6253 125.184 100.009 125.376C100.457 125.504 100.937 125.312 101.449 124.8C104.009 122.368 106.249 120.704 108.169 119.808C110.153 118.912 112.233 118.464 114.409 118.464C117.289 118.464 119.593 119.488 121.321 121.536C123.049 123.52 123.913 126.464 123.913 130.368V161.568C123.913 162.912 124.105 163.872 124.489 164.448C124.937 164.96 125.833 165.312 127.177 165.504L129.289 165.792C129.993 165.92 130.345 166.304 130.345 166.944C130.345 167.648 129.961 168 129.193 168H113.065C112.169 168 111.721 167.648 111.721 166.944C111.721 166.304 112.073 165.92 112.777 165.792L114.121 165.6C115.465 165.408 116.329 165.024 116.713 164.448C117.161 163.872 117.385 162.912 117.385 161.568V131.424C117.385 128.288 116.809 126.08 115.657 124.8C114.505 123.52 112.873 122.88 110.761 122.88C108.713 122.88 106.857 123.488 105.193 124.704C103.593 125.856 102.313 127.424 101.353 129.408C100.393 131.328 99.9133 133.472 99.9133 135.84V161.568C99.9133 162.912 100.105 163.872 100.489 164.448C100.937 165.024 101.833 165.376 103.177 165.504L105.769 165.792C106.473 165.92 106.825 166.272 106.825 166.848C106.825 167.616 106.345 168 105.385 168H89.1613ZM150.863 168.864C147.599 168.864 144.655 167.776 142.031 165.6C139.471 163.36 137.423 160.32 135.887 156.48C134.351 152.64 133.583 148.352 133.583 143.616C133.583 138.88 134.351 134.624 135.887 130.848C137.423 127.072 139.503 124.064 142.127 121.824C144.751 119.584 147.663 118.464 150.863 118.464C154.127 118.464 157.039 119.584 159.599 121.824C162.223 124.064 164.303 127.072 165.839 130.848C167.375 134.624 168.143 138.88 168.143 143.616C168.143 148.352 167.375 152.64 165.839 156.48C164.367 160.32 162.319 163.36 159.695 165.6C157.071 167.776 154.127 168.864 150.863 168.864ZM150.863 166.464C157.519 166.464 160.847 158.848 160.847 143.616C160.847 128.448 157.519 120.864 150.863 120.864C144.207 120.864 140.879 128.448 140.879 143.616C140.879 158.848 144.207 166.464 150.863 166.464ZM185.347 125.184C187.971 120.704 191.139 118.464 194.851 118.464C196.963 118.464 198.531 119.104 199.555 120.384C200.579 121.6 201.091 122.976 201.091 124.512C201.091 125.728 200.771 126.72 200.131 127.488C199.555 128.256 198.627 128.64 197.347 128.64C196.323 128.64 195.555 128.416 195.043 127.968C194.595 127.456 194.211 126.88 193.891 126.24C193.635 125.6 193.315 125.056 192.931 124.608C192.547 124.096 191.907 123.84 191.011 123.84C189.859 123.84 188.771 124.544 187.747 125.952C186.723 127.296 185.859 129.12 185.155 131.424C184.515 133.728 184.195 136.352 184.195 139.296V161.568C184.195 162.912 184.387 163.872 184.771 164.448C185.219 165.024 186.115 165.376 187.459 165.504L190.051 165.792C190.755 165.92 191.107 166.272 191.107 166.848C191.107 167.616 190.627 168 189.667 168H173.443C172.483 168 172.003 167.648 172.003 166.944C172.003 166.368 172.419 165.984 173.251 165.792L174.403 165.6C175.747 165.344 176.611 164.96 176.995 164.448C177.443 163.872 177.667 162.912 177.667 161.568V129.312C177.667 128.16 177.475 127.392 177.091 127.008C176.771 126.56 176.163 126.272 175.267 126.144L173.251 125.856C172.419 125.792 172.003 125.44 172.003 124.8C172.003 124.288 172.515 123.936 173.539 123.744C175.523 123.424 177.027 122.912 178.051 122.208C179.139 121.504 180.259 120.64 181.411 119.616C181.987 119.04 182.467 118.752 182.851 118.752C183.427 118.752 183.715 119.136 183.715 119.904V125.088C183.715 125.536 183.907 125.824 184.291 125.952C184.675 126.016 185.027 125.76 185.347 125.184ZM230.014 168.864C228.542 168.864 226.974 168.672 225.31 168.288C223.646 167.968 222.302 167.552 221.278 167.04C220.702 166.72 220.414 166.176 220.414 165.408L220.126 154.656C220.126 153.568 220.542 153.024 221.374 153.024C222.078 153.024 222.558 153.536 222.814 154.56C223.902 159.104 225.214 162.208 226.75 163.872C228.35 165.536 230.27 166.368 232.51 166.368C234.366 166.368 235.902 165.664 237.118 164.256C238.334 162.784 238.942 160.768 238.942 158.208C238.942 155.648 238.238 153.376 236.83 151.392C235.422 149.408 233.054 147.232 229.726 144.864C226.398 142.624 223.966 140.384 222.43 138.144C220.894 135.84 220.126 133.344 220.126 130.656C220.126 127.008 221.406 124.064 223.966 121.824C226.526 119.584 229.918 118.464 234.142 118.464C235.422 118.464 236.67 118.624 237.886 118.944C239.102 119.2 240.19 119.648 241.15 120.288C241.726 120.672 242.014 121.184 242.014 121.824L242.206 132.384C242.206 133.344 241.822 133.824 241.054 133.824C240.606 133.824 240.286 133.696 240.094 133.44C239.902 133.12 239.742 132.736 239.614 132.288C238.334 128.128 237.054 125.248 235.774 123.648C234.494 121.984 232.926 121.152 231.07 121.152C229.406 121.152 228.03 121.728 226.942 122.88C225.854 124.032 225.31 125.472 225.31 127.2C225.31 129.44 225.982 131.392 227.326 133.056C228.67 134.72 231.102 136.768 234.622 139.2C237.822 141.504 240.222 144 241.822 146.688C243.486 149.312 244.318 152.192 244.318 155.328C244.318 159.424 243.006 162.72 240.382 165.216C237.758 167.648 234.302 168.864 230.014 168.864ZM266.457 168.864C263.193 168.864 260.249 167.776 257.625 165.6C255.065 163.36 253.017 160.32 251.481 156.48C249.945 152.64 249.177 148.352 249.177 143.616C249.177 138.88 249.945 134.624 251.481 130.848C253.017 127.072 255.097 124.064 257.721 121.824C260.345 119.584 263.257 118.464 266.457 118.464C269.721 118.464 272.633 119.584 275.193 121.824C277.817 124.064 279.897 127.072 281.433 130.848C282.969 134.624 283.737 138.88 283.737 143.616C283.737 148.352 282.969 152.64 281.433 156.48C279.961 160.32 277.913 163.36 275.289 165.6C272.665 167.776 269.721 168.864 266.457 168.864ZM266.457 166.464C273.113 166.464 276.441 158.848 276.441 143.616C276.441 128.448 273.113 120.864 266.457 120.864C259.801 120.864 256.473 128.448 256.473 143.616C256.473 158.848 259.801 166.464 266.457 166.464ZM303.436 168.864C300.62 168.864 298.06 167.936 295.756 166.08C293.516 164.16 291.724 161.44 290.38 157.92C289.036 154.4 288.364 150.208 288.364 145.344C288.364 139.904 289.164 135.168 290.764 131.136C292.428 127.104 294.668 124 297.484 121.824C300.3 119.584 303.436 118.464 306.892 118.464C309.836 118.464 312.14 119.04 313.804 120.192C314.444 120.64 314.764 121.344 314.764 122.304L314.956 134.016C314.956 134.976 314.572 135.456 313.804 135.456C313.1 135.456 312.652 135.04 312.46 134.208C311.564 130.688 310.7 127.968 309.868 126.048C309.036 124.128 308.172 122.816 307.276 122.112C306.38 121.344 305.388 120.96 304.3 120.96C303.02 120.96 301.676 121.696 300.268 123.168C298.924 124.64 297.772 127.04 296.812 130.368C295.916 133.632 295.468 137.952 295.468 143.328C295.468 150.176 296.332 155.328 298.06 158.784C299.852 162.24 302.156 163.968 304.972 163.968C307.212 163.968 309.068 163.04 310.54 161.184C312.076 159.328 313.388 155.968 314.476 151.104C314.668 150.4 315.052 150.048 315.628 150.048C316.396 150.048 316.684 150.688 316.492 151.968C315.788 156.448 314.796 159.936 313.516 162.432C312.3 164.864 310.828 166.56 309.1 167.52C307.436 168.416 305.548 168.864 303.436 168.864ZM329.632 109.92C328.288 109.92 327.136 109.44 326.176 108.48C325.28 107.52 324.832 106.304 324.832 104.832C324.832 103.36 325.28 102.176 326.176 101.28C327.136 100.32 328.288 99.84 329.632 99.84C330.976 99.84 332.096 100.32 332.992 101.28C333.888 102.176 334.336 103.36 334.336 104.832C334.336 106.304 333.888 107.52 332.992 108.48C332.096 109.44 330.976 109.92 329.632 109.92ZM321.568 168C320.608 168 320.128 167.648 320.128 166.944C320.128 166.368 320.544 165.984 321.376 165.792L322.528 165.6C324.128 165.344 325.152 164.96 325.6 164.448C326.048 163.872 326.272 162.912 326.272 161.568V129.312C326.272 128.16 326.08 127.392 325.696 127.008C325.376 126.56 324.768 126.272 323.872 126.144L321.855 125.856C321.024 125.792 320.608 125.44 320.608 124.8C320.608 124.288 321.12 123.936 322.144 123.744C324.128 123.424 325.728 122.912 326.944 122.208C328.16 121.504 329.344 120.64 330.496 119.616C331.072 119.04 331.552 118.752 331.936 118.752C332.512 118.752 332.799 119.136 332.799 119.904V161.568C332.799 162.912 332.992 163.872 333.376 164.448C333.76 165.024 334.496 165.376 335.584 165.504L337.984 165.792C338.688 165.92 339.04 166.272 339.04 166.848C339.04 167.616 338.56 168 337.6 168H321.568ZM358.495 168.864C355.423 168.864 352.671 167.84 350.239 165.792C347.807 163.744 345.855 160.864 344.383 157.152C342.975 153.376 342.271 149.024 342.271 144.096C342.271 139.04 343.007 134.592 344.479 130.752C345.951 126.912 347.967 123.904 350.527 121.728C353.087 119.552 355.935 118.464 359.071 118.464C362.847 118.464 365.887 120.032 368.191 123.168C370.559 126.24 371.743 131.264 371.743 138.24C371.743 140.352 370.943 141.408 369.343 141.408H351.103C349.823 141.408 349.183 142.144 349.183 143.616C349.183 150.4 350.175 155.488 352.159 158.88C354.143 162.272 356.671 163.968 359.743 163.968C362.175 163.968 364.159 163.104 365.695 161.376C367.231 159.648 368.479 156.736 369.439 152.64C369.631 151.936 370.047 151.584 370.687 151.584C371.455 151.584 371.743 152.224 371.551 153.504C370.527 159.2 368.895 163.2 366.655 165.504C364.415 167.744 361.695 168.864 358.495 168.864ZM350.815 139.008H360.511C363.583 139.008 365.119 137.408 365.119 134.208C365.119 130.048 364.607 126.784 363.583 124.416C362.559 122.048 361.023 120.864 358.975 120.864C356.479 120.864 354.367 122.304 352.639 125.184C350.975 128.064 349.887 132.16 349.375 137.472C349.247 138.496 349.727 139.008 350.815 139.008ZM388.299 168.864C386.06 168.864 384.204 168.096 382.732 166.56C381.324 164.96 380.62 162.368 380.62 158.784V122.88C380.62 122.112 380.236 121.728 379.468 121.728H376.684C375.66 121.728 375.148 121.344 375.148 120.576C375.148 120.064 375.436 119.616 376.012 119.232C378.124 117.76 379.82 116.192 381.1 114.528C382.38 112.8 383.5 110.464 384.46 107.52C384.908 106.176 385.452 105.504 386.092 105.504C386.796 105.504 387.148 106.016 387.148 107.04V117.696C387.148 118.592 387.596 119.04 388.492 119.04H394.732C395.756 119.04 396.268 119.488 396.268 120.384C396.268 121.28 395.756 121.728 394.732 121.728H388.492C387.596 121.728 387.148 122.176 387.148 123.072V158.88C387.148 160.288 387.372 161.408 387.82 162.24C388.268 163.008 389.1 163.392 390.316 163.392C391.66 163.392 392.748 162.72 393.58 161.376C394.476 160.032 395.052 157.856 395.308 154.848C395.436 153.952 395.852 153.504 396.556 153.504C397.324 153.504 397.708 153.984 397.708 154.944C397.516 159.872 396.492 163.424 394.636 165.6C392.844 167.776 390.732 168.864 388.299 168.864ZM405.124 187.68C403.396 187.68 402.02 187.072 400.996 185.856C399.972 184.704 399.46 183.36 399.46 181.824C399.46 180.608 399.812 179.584 400.516 178.752C401.22 177.92 402.18 177.504 403.396 177.504C404.42 177.504 405.156 177.728 405.604 178.176C406.052 178.624 406.372 179.136 406.564 179.712C406.756 180.288 406.948 180.8 407.14 181.248C407.332 181.696 407.716 181.92 408.292 181.92C408.996 181.92 409.636 181.408 410.212 180.384C410.788 179.424 411.588 177.344 412.612 174.144C413.252 172.224 413.636 170.56 413.764 169.152C413.956 167.744 413.924 166.24 413.668 164.64C413.476 163.04 412.996 161.088 412.228 158.784L401.764 125.472C401.316 123.936 400.868 122.944 400.42 122.496C400.036 122.048 399.396 121.728 398.5 121.536L397.06 121.248C396.228 121.056 395.812 120.64 395.812 120C395.812 119.36 396.26 119.04 397.156 119.04H412.996C413.892 119.04 414.34 119.36 414.34 120C414.34 120.704 413.924 121.12 413.092 121.248L411.556 121.44C410.02 121.632 409.028 122.016 408.58 122.592C408.196 123.104 408.228 124.064 408.676 125.472L417.124 153.6C417.316 154.24 417.604 154.56 417.988 154.56C418.436 154.56 418.756 154.24 418.948 153.6L427.108 127.2C427.62 125.472 427.748 124.192 427.492 123.36C427.3 122.464 426.404 121.888 424.804 121.632L422.788 121.248C421.956 121.056 421.54 120.64 421.54 120C421.54 119.36 421.988 119.04 422.884 119.04H435.076C435.972 119.04 436.42 119.392 436.42 120.096C436.42 120.736 436.036 121.184 435.268 121.44L434.404 121.728C433.444 122.048 432.644 122.624 432.004 123.456C431.364 124.288 430.692 125.728 429.988 127.776L415.684 172.416C414.276 176.896 412.996 180.224 411.844 182.4C410.756 184.576 409.7 185.984 408.676 186.624C407.652 187.328 406.468 187.68 405.124 187.68ZM471.488 168.864C468.224 168.864 465.28 167.776 462.656 165.6C460.096 163.36 458.048 160.32 456.512 156.48C454.976 152.64 454.208 148.352 454.208 143.616C454.208 138.88 454.976 134.624 456.512 130.848C458.048 127.072 460.128 124.064 462.752 121.824C465.376 119.584 468.288 118.464 471.488 118.464C474.752 118.464 477.664 119.584 480.224 121.824C482.848 124.064 484.928 127.072 486.464 130.848C488 134.624 488.768 138.88 488.768 143.616C488.768 148.352 488 152.64 486.464 156.48C484.992 160.32 482.944 163.36 480.32 165.6C477.696 167.776 474.752 168.864 471.488 168.864ZM471.488 166.464C478.144 166.464 481.472 158.848 481.472 143.616C481.472 128.448 478.144 120.864 471.488 120.864C464.832 120.864 461.504 128.448 461.504 143.616C461.504 158.848 464.832 166.464 471.488 166.464ZM499.348 161.568V124.032C499.348 122.496 498.58 121.728 497.044 121.728H494.836C494.068 121.728 493.684 121.408 493.684 120.768C493.684 120.128 494.068 119.776 494.836 119.712C497.844 119.392 499.348 118.08 499.348 115.776V115.2C499.348 111.872 499.828 108.768 500.788 105.888C501.812 103.008 503.252 100.672 505.108 98.88C507.028 97.088 509.364 96.192 512.116 96.192C514.676 96.192 516.82 96.928 518.548 98.4C520.276 99.872 521.14 101.632 521.14 103.68C521.14 104.896 520.82 105.824 520.18 106.464C519.604 107.04 518.804 107.328 517.78 107.328C516.5 107.328 515.572 106.912 514.996 106.08C514.484 105.248 514.068 104.32 513.748 103.296C513.428 102.208 513.012 101.248 512.5 100.416C512.052 99.584 511.22 99.168 510.004 99.168C508.724 99.168 507.7 99.904 506.932 101.376C506.228 102.784 505.876 105.472 505.876 109.44V117.888C505.876 118.656 506.26 119.04 507.028 119.04H515.284C516.244 119.04 516.724 119.488 516.724 120.384C516.724 121.28 516.244 121.728 515.284 121.728H507.028C506.26 121.728 505.876 122.112 505.876 122.88V161.568C505.876 162.912 506.068 163.84 506.452 164.352C506.9 164.864 507.796 165.184 509.14 165.312L514.228 165.792C514.932 165.92 515.284 166.272 515.284 166.848C515.284 167.616 514.804 168 513.844 168H493.876C492.916 168 492.436 167.648 492.436 166.944C492.436 166.24 492.852 165.856 493.684 165.792L496.084 165.6C497.428 165.472 498.292 165.12 498.676 164.544C499.124 163.904 499.348 162.912 499.348 161.568ZM19.664 264.864C18.384 264.864 16.944 264.736 15.344 264.48C13.808 264.224 12.336 263.904 10.928 263.52C9.584 263.136 8.528 262.72 7.76 262.272C7.312 262.016 6.96 261.76 6.704 261.504C6.512 261.184 6.416 260.672 6.416 259.968L5.936 244.896C5.936 243.616 6.352 242.976 7.184 242.976C7.888 242.976 8.368 243.552 8.624 244.704L9.488 248.352C11.664 257.504 15.728 262.08 21.68 262.08C24.88 262.08 27.408 261.024 29.264 258.912C31.184 256.736 32.144 253.696 32.144 249.792C32.144 246.016 31.152 242.496 29.168 239.232C27.248 235.968 24.144 232.736 19.856 229.536C15.12 226.144 11.664 222.88 9.488 219.744C7.312 216.544 6.224 213.152 6.224 209.568C6.224 204.832 7.856 201.056 11.12 198.24C14.448 195.36 18.672 193.92 23.792 193.92C25.712 193.92 27.568 194.144 29.36 194.592C31.152 195.04 32.624 195.68 33.776 196.512C34.16 196.768 34.448 197.056 34.64 197.376C34.896 197.696 35.024 198.112 35.024 198.624L35.312 213.12C35.312 214.208 34.896 214.752 34.064 214.752C33.488 214.752 33.072 214.304 32.816 213.408L32.144 211.008C30.736 206.08 29.264 202.496 27.728 200.256C26.256 197.952 24.112 196.8 21.296 196.8C18.544 196.8 16.336 197.696 14.672 199.488C13.072 201.28 12.272 203.808 12.272 207.072C12.272 209.824 13.168 212.448 14.96 214.944C16.752 217.44 19.888 220.48 24.368 224.064C29.168 227.968 32.656 231.744 34.832 235.392C37.072 238.976 38.192 242.816 38.192 246.912C38.192 250.496 37.392 253.632 35.792 256.32C34.192 259.008 31.984 261.12 29.168 262.656C26.416 264.128 23.248 264.864 19.664 264.864ZM55.2057 264.864C52.9658 264.864 51.1098 264.096 49.6378 262.56C48.2298 260.96 47.5258 258.368 47.5258 254.784V218.88C47.5258 218.112 47.1418 217.728 46.3738 217.728H43.5898C42.5658 217.728 42.0538 217.344 42.0538 216.576C42.0538 216.064 42.3418 215.616 42.9178 215.232C45.0298 213.76 46.7258 212.192 48.0058 210.528C49.2858 208.8 50.4058 206.464 51.3658 203.52C51.8138 202.176 52.3578 201.504 52.9978 201.504C53.7018 201.504 54.0538 202.016 54.0538 203.04V213.696C54.0538 214.592 54.5018 215.04 55.3978 215.04H61.6378C62.6618 215.04 63.1738 215.488 63.1738 216.384C63.1738 217.28 62.6618 217.728 61.6378 217.728H55.3978C54.5018 217.728 54.0538 218.176 54.0538 219.072V254.88C54.0538 256.288 54.2778 257.408 54.7258 258.24C55.1738 259.008 56.0058 259.392 57.2218 259.392C58.5658 259.392 59.6538 258.72 60.4858 257.376C61.3818 256.032 61.9578 253.856 62.2138 250.848C62.3418 249.952 62.7578 249.504 63.4618 249.504C64.2298 249.504 64.6138 249.984 64.6138 250.944C64.4218 255.872 63.3978 259.424 61.5418 261.6C59.7498 263.776 57.6378 264.864 55.2057 264.864ZM81.6035 264.864C80.0035 264.864 78.4675 264.512 76.9955 263.808C75.5235 263.104 74.3075 261.984 73.3475 260.448C72.3875 258.912 71.9075 256.864 71.9075 254.304V220.896C71.9075 219.744 71.7155 218.944 71.3315 218.496C71.0115 218.048 70.4035 217.792 69.5075 217.728L67.8755 217.536C66.7875 217.408 66.2435 216.992 66.2435 216.288C66.2435 215.456 66.8515 215.04 68.0675 215.04H76.9955C77.9555 215.04 78.4355 215.52 78.4355 216.48V252.288C78.4355 255.232 78.9795 257.344 80.0675 258.624C81.2195 259.84 82.7875 260.448 84.7715 260.448C86.7555 260.448 88.5155 259.904 90.0515 258.816C91.5875 257.664 92.8035 256.16 93.6995 254.304C94.6595 252.384 95.1395 250.304 95.1395 248.064V220.896C95.1395 219.744 94.9475 218.944 94.5635 218.496C94.2435 218.048 93.6355 217.792 92.7395 217.728L91.1075 217.536C90.0195 217.408 89.4755 216.992 89.4755 216.288C89.4755 215.456 90.0835 215.04 91.2995 215.04H100.228C101.188 215.04 101.668 215.52 101.668 216.48V253.728C101.668 254.88 101.828 255.68 102.148 256.128C102.532 256.512 103.172 256.768 104.068 256.896L106.084 257.184C106.916 257.248 107.332 257.568 107.332 258.144C107.332 258.72 106.82 259.104 105.796 259.296C103.812 259.552 102.212 260.064 100.996 260.832C99.8435 261.6 98.8195 262.528 97.9235 263.616C97.3475 264.192 96.8675 264.48 96.4835 264.48C95.9075 264.48 95.6195 264.096 95.6195 263.328V258.912C95.6195 258.4 95.4275 258.112 95.0435 258.048C94.7235 257.92 94.3715 258.048 93.9875 258.432C91.6195 260.8 89.5075 262.464 87.6515 263.424C85.8595 264.384 83.8435 264.864 81.6035 264.864ZM116.749 283.68C115.021 283.68 113.645 283.072 112.621 281.856C111.597 280.704 111.085 279.36 111.085 277.824C111.085 276.608 111.437 275.584 112.141 274.752C112.845 273.92 113.805 273.504 115.021 273.504C116.045 273.504 116.781 273.728 117.229 274.176C117.677 274.624 117.997 275.136 118.189 275.712C118.381 276.288 118.573 276.8 118.765 277.248C118.957 277.696 119.341 277.92 119.917 277.92C120.621 277.92 121.261 277.408 121.837 276.384C122.413 275.424 123.213 273.344 124.237 270.144C124.877 268.224 125.261 266.56 125.389 265.152C125.581 263.744 125.549 262.24 125.293 260.64C125.101 259.04 124.621 257.088 123.853 254.784L113.389 221.472C112.941 219.936 112.493 218.944 112.045 218.496C111.661 218.048 111.021 217.728 110.125 217.536L108.685 217.248C107.853 217.056 107.437 216.64 107.437 216C107.437 215.36 107.885 215.04 108.781 215.04H124.621C125.517 215.04 125.965 215.36 125.965 216C125.965 216.704 125.549 217.12 124.717 217.248L123.181 217.44C121.645 217.632 120.653 218.016 120.205 218.592C119.821 219.104 119.853 220.064 120.301 221.472L128.749 249.6C128.941 250.24 129.229 250.56 129.613 250.56C130.061 250.56 130.381 250.24 130.573 249.6L138.733 223.2C139.245 221.472 139.373 220.192 139.117 219.36C138.925 218.464 138.029 217.888 136.429 217.632L134.413 217.248C133.581 217.056 133.165 216.64 133.165 216C133.165 215.36 133.613 215.04 134.509 215.04H146.701C147.597 215.04 148.045 215.392 148.045 216.096C148.045 216.736 147.661 217.184 146.893 217.44L146.029 217.728C145.069 218.048 144.269 218.624 143.629 219.456C142.989 220.288 142.317 221.728 141.613 223.776L127.309 268.416C125.901 272.896 124.621 276.224 123.469 278.4C122.381 280.576 121.325 281.984 120.301 282.624C119.277 283.328 118.093 283.68 116.749 283.68ZM164.249 264.864C163.673 264.864 163.257 264.512 163.001 263.808L150.233 221.472C149.785 219.936 149.337 218.944 148.889 218.496C148.505 218.048 147.865 217.728 146.969 217.536L145.529 217.248C144.697 217.056 144.281 216.64 144.281 216C144.281 215.36 144.729 215.04 145.625 215.04H161.465C162.361 215.04 162.809 215.36 162.809 216C162.809 216.704 162.393 217.12 161.561 217.248L160.025 217.44C158.489 217.632 157.529 218.016 157.145 218.592C156.761 219.104 156.761 220.064 157.145 221.472L165.113 249.216C165.305 249.92 165.625 250.272 166.073 250.272C166.521 250.272 166.841 249.92 167.033 249.216L174.809 223.2C175.321 221.472 175.449 220.192 175.193 219.36C175.001 218.464 174.105 217.888 172.505 217.632L170.489 217.248C169.657 217.056 169.241 216.64 169.241 216C169.241 215.36 169.689 215.04 170.585 215.04H182.777C183.673 215.04 184.121 215.392 184.121 216.096C184.121 216.736 183.737 217.184 182.969 217.44L182.105 217.728C181.145 218.048 180.313 218.624 179.609 219.456C178.969 220.288 178.329 221.728 177.689 223.776L165.497 263.808C165.241 264.512 164.825 264.864 164.249 264.864ZM200.62 264.864C197.548 264.864 194.796 263.84 192.364 261.792C189.932 259.744 187.98 256.864 186.508 253.152C185.1 249.376 184.396 245.024 184.396 240.096C184.396 235.04 185.132 230.592 186.604 226.752C188.076 222.912 190.092 219.904 192.652 217.728C195.212 215.552 198.06 214.464 201.196 214.464C204.972 214.464 208.012 216.032 210.316 219.168C212.684 222.24 213.868 227.264 213.868 234.24C213.868 236.352 213.068 237.408 211.468 237.408H193.228C191.948 237.408 191.308 238.144 191.308 239.616C191.308 246.4 192.3 251.488 194.284 254.88C196.268 258.272 198.796 259.968 201.868 259.968C204.3 259.968 206.284 259.104 207.82 257.376C209.356 255.648 210.604 252.736 211.564 248.64C211.756 247.936 212.172 247.584 212.812 247.584C213.58 247.584 213.868 248.224 213.676 249.504C212.652 255.2 211.02 259.2 208.78 261.504C206.54 263.744 203.82 264.864 200.62 264.864ZM192.94 235.008H202.636C205.708 235.008 207.244 233.408 207.244 230.208C207.244 226.048 206.732 222.784 205.708 220.416C204.684 218.048 203.148 216.864 201.1 216.864C198.604 216.864 196.492 218.304 194.764 221.184C193.1 224.064 192.012 228.16 191.5 233.472C191.372 234.496 191.852 235.008 192.94 235.008ZM228.889 264.864C227.417 264.864 225.849 264.672 224.185 264.288C222.521 263.968 221.177 263.552 220.153 263.04C219.577 262.72 219.289 262.176 219.289 261.408L219.001 250.656C219.001 249.568 219.417 249.024 220.249 249.024C220.953 249.024 221.433 249.536 221.689 250.56C222.777 255.104 224.089 258.208 225.625 259.872C227.225 261.536 229.145 262.368 231.385 262.368C233.241 262.368 234.777 261.664 235.993 260.256C237.209 258.784 237.817 256.768 237.817 254.208C237.817 251.648 237.113 249.376 235.705 247.392C234.297 245.408 231.929 243.232 228.601 240.864C225.273 238.624 222.841 236.384 221.305 234.144C219.769 231.84 219.001 229.344 219.001 226.656C219.001 223.008 220.281 220.064 222.841 217.824C225.401 215.584 228.793 214.464 233.017 214.464C234.297 214.464 235.545 214.624 236.761 214.944C237.977 215.2 239.065 215.648 240.025 216.288C240.601 216.672 240.889 217.184 240.889 217.824L241.081 228.384C241.081 229.344 240.697 229.824 239.929 229.824C239.481 229.824 239.161 229.696 238.969 229.44C238.777 229.12 238.617 228.736 238.489 228.288C237.209 224.128 235.929 221.248 234.649 219.648C233.369 217.984 231.801 217.152 229.945 217.152C228.281 217.152 226.905 217.728 225.817 218.88C224.729 220.032 224.185 221.472 224.185 223.2C224.185 225.44 224.857 227.392 226.201 229.056C227.545 230.72 229.977 232.768 233.497 235.2C236.697 237.504 239.097 240 240.697 242.688C242.361 245.312 243.193 248.192 243.193 251.328C243.193 255.424 241.881 258.72 239.257 261.216C236.633 263.648 233.177 264.864 228.889 264.864ZM257.364 264.864C254.676 264.864 252.468 264.032 250.74 262.368C249.012 260.64 248.148 258.368 248.148 255.552C248.148 252.8 249.012 250.208 250.74 247.776C252.468 245.28 254.836 243.04 257.844 241.056C260.852 239.072 264.276 237.472 268.116 236.256C268.948 236 269.364 235.456 269.364 234.624V225.888C269.364 222.816 268.884 220.64 267.924 219.36C266.964 218.016 265.652 217.344 263.988 217.344C262.388 217.344 260.916 218.08 259.572 219.552C258.292 220.96 257.364 223.36 256.788 226.752C256.468 228.8 255.764 230.304 254.676 231.264C253.652 232.16 252.596 232.608 251.508 232.608C249.716 232.608 248.82 231.712 248.82 229.92C248.82 228.064 249.332 226.24 250.356 224.448C251.444 222.592 252.852 220.928 254.58 219.456C256.308 217.92 258.196 216.704 260.244 215.808C262.292 214.912 264.34 214.464 266.388 214.464C272.724 214.464 275.892 218.144 275.892 225.504V254.88C275.892 257.568 276.564 258.912 277.908 258.912C278.74 258.912 279.508 258.368 280.212 257.28C280.916 256.128 281.268 254.208 281.268 251.52C281.268 250.496 281.684 249.984 282.516 249.984C283.284 249.984 283.668 250.528 283.668 251.616C283.668 256.288 282.836 259.68 281.172 261.792C279.572 263.84 277.748 264.864 275.7 264.864C274.164 264.864 272.948 264.256 272.052 263.04C271.156 261.76 270.548 260.256 270.228 258.528C270.164 257.888 269.876 257.568 269.364 257.568C268.916 257.504 268.468 257.792 268.02 258.432C266.484 260.544 264.916 262.144 263.316 263.232C261.716 264.32 259.732 264.864 257.364 264.864ZM259.956 260.448C261.62 260.448 263.156 259.872 264.564 258.72C265.972 257.504 267.124 255.904 268.02 253.92C268.916 251.936 269.364 249.696 269.364 247.2V240.192C269.364 238.976 268.692 238.624 267.348 239.136C263.444 240.544 260.404 242.496 258.228 244.992C256.116 247.424 255.06 250.368 255.06 253.824C255.06 258.24 256.692 260.448 259.956 260.448ZM287.068 264C286.108 264 285.628 263.648 285.628 262.944C285.628 262.368 286.044 261.984 286.876 261.792L288.028 261.6C289.372 261.344 290.236 260.96 290.62 260.448C291.068 259.872 291.292 258.912 291.292 257.568V225.312C291.292 224.16 291.1 223.392 290.716 223.008C290.396 222.56 289.788 222.272 288.892 222.144L286.876 221.856C286.044 221.792 285.628 221.44 285.628 220.8C285.628 220.288 286.14 219.936 287.164 219.744C289.148 219.424 290.652 218.912 291.676 218.208C292.764 217.504 293.884 216.64 295.036 215.616C295.612 215.04 296.092 214.752 296.476 214.752C297.052 214.752 297.34 215.136 297.34 215.904V220.224C297.34 220.8 297.532 221.184 297.916 221.376C298.364 221.504 298.844 221.312 299.356 220.8C301.916 218.368 304.156 216.704 306.076 215.808C308.06 214.912 310.14 214.464 312.316 214.464C315.196 214.464 317.5 215.488 319.228 217.536C320.956 219.52 321.82 222.464 321.82 226.368V257.568C321.82 258.912 322.012 259.872 322.396 260.448C322.844 260.96 323.74 261.312 325.084 261.504L327.196 261.792C327.9 261.92 328.252 262.304 328.252 262.944C328.252 263.648 327.868 264 327.1 264H310.972C310.076 264 309.628 263.648 309.628 262.944C309.628 262.304 309.98 261.92 310.684 261.792L312.028 261.6C313.372 261.408 314.236 261.024 314.62 260.448C315.068 259.872 315.292 258.912 315.292 257.568V227.424C315.292 224.288 314.716 222.08 313.564 220.8C312.412 219.52 310.78 218.88 308.668 218.88C306.62 218.88 304.764 219.488 303.1 220.704C301.5 221.856 300.22 223.424 299.26 225.408C298.3 227.328 297.82 229.472 297.82 231.84V257.568C297.82 258.912 298.012 259.872 298.396 260.448C298.844 261.024 299.74 261.376 301.084 261.504L303.676 261.792C304.38 261.92 304.732 262.272 304.732 262.848C304.732 263.616 304.252 264 303.292 264H287.068ZM343.393 264.864C341.153 264.864 339.297 264.096 337.825 262.56C336.417 260.96 335.713 258.368 335.713 254.784V218.88C335.713 218.112 335.329 217.728 334.561 217.728H331.777C330.753 217.728 330.241 217.344 330.241 216.576C330.241 216.064 330.529 215.616 331.105 215.232C333.217 213.76 334.913 212.192 336.193 210.528C337.473 208.8 338.593 206.464 339.553 203.52C340.001 202.176 340.545 201.504 341.185 201.504C341.889 201.504 342.241 202.016 342.241 203.04V213.696C342.241 214.592 342.689 215.04 343.585 215.04H349.825C350.849 215.04 351.361 215.488 351.361 216.384C351.361 217.28 350.849 217.728 349.825 217.728H343.585C342.689 217.728 342.241 218.176 342.241 219.072V254.88C342.241 256.288 342.465 257.408 342.913 258.24C343.361 259.008 344.193 259.392 345.409 259.392C346.753 259.392 347.841 258.72 348.673 257.376C349.569 256.032 350.145 253.856 350.401 250.848C350.529 249.952 350.945 249.504 351.649 249.504C352.417 249.504 352.801 249.984 352.801 250.944C352.609 255.872 351.585 259.424 349.729 261.6C347.937 263.776 345.825 264.864 343.393 264.864ZM364.397 264.864C362.989 264.864 361.773 264.416 360.749 263.52C359.789 262.56 359.309 261.312 359.309 259.776C359.309 258.304 359.789 257.12 360.749 256.224C361.773 255.264 362.989 254.784 364.397 254.784C365.677 254.784 366.829 255.264 367.853 256.224C368.877 257.12 369.389 258.304 369.389 259.776C369.389 261.312 368.877 262.56 367.853 263.52C366.829 264.416 365.677 264.864 364.397 264.864Z" fill="#B6B684" style="fill:#B6B684;fill:color(display-p3 0.7137 0.7137 0.5176);fill-opacity:1;"/>
</svg>
