<svg width="627" height="366" viewBox="0 0 627 366" fill="none" xmlns="http://www.w3.org/2000/svg">
<path d="M30.504 0.591995L57.096 70H48.552C47.592 67.024 42.792 53.872 38.664 41.872H14.088L10.728 50.512C9 54.64 5.928 63.76 4.488 70H0.84C3.336 65.2 8.904 51.76 14.184 37.936L22.536 15.376C24.264 10.768 26.184 5.68 28.2 0.591995H30.504ZM38.184 40.72L26.28 9.04L14.472 40.72H38.184ZM65.7375 24.688L72.3615 22.48V29.104C75.0495 26.224 79.1775 22.672 84.5535 22.672C86.5695 22.672 88.4895 22.768 90.7935 24.112L90.0255 28.144C87.9135 25.744 85.0335 24.976 83.2095 24.976C79.3695 24.976 76.0095 26.704 72.3615 30.448V70H65.7375V24.688ZM104.098 70H97.4738V24.688L104.098 22.48V70ZM105.538 8.848C105.538 11.344 103.714 13.648 100.738 13.648C97.8578 13.648 95.9378 11.344 95.9378 8.848C95.9378 6.256 97.8578 4.048 100.738 4.048C103.714 4.048 105.538 6.256 105.538 8.848ZM143.936 57.328C143.936 61.552 141.824 65.296 138.656 67.792C136.16 69.808 132.032 71.056 127.808 71.056C124.352 71.056 120.512 69.808 117.632 67.6C115.04 65.68 113.024 62.896 111.584 59.824L112.64 59.248C114.176 62.128 116.096 64.336 118.4 65.968C120.896 67.792 124.16 68.752 127.808 68.752C129.824 68.752 132.8 68.08 134.432 66.928C136.736 65.392 138.08 62.992 138.08 60.208C138.08 55.216 133.568 52.72 129.824 50.704L123.104 47.056C116.288 43.216 113.312 40.048 113.312 34.672C113.312 25.744 121.088 22.672 127.04 22.672C131.36 22.672 135.968 23.92 140 26.32L139.424 30.928C137.504 28.048 133.376 23.824 127.232 23.824C121.952 23.824 119.456 27.568 119.456 31.216C119.456 35.344 121.664 37.36 123.776 38.704C125.696 39.856 128.384 41.2 130.592 42.256C138.176 46 143.936 49.648 143.936 57.328ZM169.162 68.752C172.234 68.752 177.226 67.024 180.49 59.44L181.546 59.92C179.626 65.2 175.114 71.056 167.434 71.056C158.602 71.056 153.994 65.968 153.994 57.04V24.976H144.394V23.824H147.274C156.394 22.288 159.274 11.44 159.37 2.8H160.618V23.824H163.21C169.642 23.824 173.866 23.44 176.458 22.864L176.938 24.976H160.618V58.48C160.618 66.448 164.842 68.752 169.162 68.752ZM221.334 68.752C222.87 68.752 224.406 67.024 224.982 63.76H226.134C225.27 69.52 222.39 71.056 219.03 71.056C214.134 71.056 211.734 67.6 211.734 61.168C202.998 70.288 197.142 71.056 193.494 71.056C185.814 71.056 182.262 66.736 182.262 61.264C182.262 49.552 199.254 44.848 209.238 43.312L211.734 42.928V38.032C211.734 28.816 209.238 23.824 199.734 23.824C196.758 23.824 193.974 24.688 191.766 26.032C189.078 27.76 187.35 30.544 187.35 33.424C187.35 34.96 187.446 36.112 187.734 36.976H186.486C186.294 36.208 186.102 34.864 186.102 33.424C186.102 30.544 187.734 27.28 191.286 25.072C193.59 23.632 196.854 22.672 200.31 22.672C209.622 22.672 218.358 25.936 218.358 38.032V63.472C218.358 65.968 218.838 68.752 221.334 68.752ZM211.734 59.632V44.08C200.118 46.192 190.038 50.032 190.038 60.016C190.038 65.872 193.59 67.984 197.622 67.984C202.326 67.984 208.662 63.088 211.734 59.632ZM257.623 70H250.999V24.688L257.623 22.48V70ZM259.063 8.848C259.063 11.344 257.239 13.648 254.263 13.648C251.383 13.648 249.463 11.344 249.463 8.848C249.463 6.256 251.383 4.048 254.263 4.048C257.239 4.048 259.063 6.256 259.063 8.848ZM297.461 57.328C297.461 61.552 295.349 65.296 292.181 67.792C289.685 69.808 285.557 71.056 281.333 71.056C277.877 71.056 274.037 69.808 271.157 67.6C268.565 65.68 266.549 62.896 265.109 59.824L266.165 59.248C267.701 62.128 269.621 64.336 271.925 65.968C274.421 67.792 277.685 68.752 281.333 68.752C283.349 68.752 286.325 68.08 287.957 66.928C290.261 65.392 291.605 62.992 291.605 60.208C291.605 55.216 287.093 52.72 283.349 50.704L276.629 47.056C269.813 43.216 266.837 40.048 266.837 34.672C266.837 25.744 274.613 22.672 280.565 22.672C284.885 22.672 289.493 23.92 293.525 26.32L292.949 30.928C291.029 28.048 286.901 23.824 280.757 23.824C275.477 23.824 272.981 27.568 272.981 31.216C272.981 35.344 275.189 37.36 277.301 38.704C279.221 39.856 281.909 41.2 284.117 42.256C291.701 46 297.461 49.648 297.461 57.328ZM47.688 143.624C47.688 153.512 39.24 162.344 24.456 162.344C21.576 162.344 11.88 161.96 2.376 156.68L2.952 151.304C6.792 156.104 13.704 161.192 24.36 161.192C35.976 161.192 40.68 154.664 40.68 147.848C40.68 139.304 32.136 132.968 22.536 128.072C12.168 122.504 2.76 116.936 2.76 106.472C2.76 97.928 8.808 90.056 23.784 90.056C31.464 90.056 37.608 92.072 42.504 94.76L41.928 100.136C38.376 95.144 32.616 91.208 23.784 91.208C12.84 91.208 9.672 96.68 9.672 102.056C9.672 111.368 17.928 116.072 27.336 120.872C37.224 126.152 47.688 132.296 47.688 143.624ZM75.6405 159.752C78.7125 159.752 83.7045 158.024 86.9685 150.44L88.0245 150.92C86.1045 156.2 81.5925 162.056 73.9125 162.056C65.0805 162.056 60.4725 156.968 60.4725 148.04V115.976H50.8725V114.824H53.7525C62.8725 113.288 65.7525 102.44 65.8485 93.8H67.0965V114.824H69.6885C76.1205 114.824 80.3445 114.44 82.9365 113.864L83.4165 115.976H67.0965V149.48C67.0965 157.448 71.3205 159.752 75.6405 159.752ZM126.722 161H120.098V155.816C112.322 162.056 106.37 162.056 104.45 162.056C93.4095 162.056 90.8175 154.184 90.8175 147.752V115.688L97.4415 113.48V147.944C97.4415 158.984 103.97 159.752 108.002 159.752C111.842 159.752 116.738 157.16 120.098 154.472V115.688L126.722 113.48V161ZM156.015 154.952C165.999 127.88 166.575 125.672 169.647 114.824H172.911C169.839 122.024 164.271 136.328 160.431 146.792C158.415 152.264 156.015 158.12 152.559 166.472C150.639 171.176 148.623 175.88 145.935 179.144C143.823 181.544 141.231 183.272 137.487 183.272C134.703 183.272 132.975 182.408 131.535 181.64L132.111 177.608C134.895 180.488 137.199 180.968 138.831 180.968C141.327 180.968 142.959 180.296 144.879 178.184C147.183 175.112 150.159 169.64 152.463 162.632C146.415 149.096 137.103 128.552 131.055 114.824H138.351L156.015 154.952ZM205.235 135.464C207.827 129.032 211.859 117.416 212.531 114.824H215.795C214.547 117.512 210.227 126.728 206.963 134.888C205.715 137.672 204.659 140.552 195.923 162.056H194.963C192.179 155.144 189.011 148.136 186.035 141.224C183.443 135.368 177.395 120.872 174.803 114.824H182.099L198.227 153.32C199.091 150.92 200.147 148.52 205.235 135.464ZM239.137 113.672C251.713 113.672 257.377 124.136 257.569 134.024H225.505C225.601 156.392 233.857 159.752 240.577 159.752C246.529 159.752 251.809 157.064 256.129 150.248L257.089 150.92C253.441 157.256 247.969 162.056 238.753 162.056C230.113 162.056 217.729 156.68 217.729 138.152C217.729 123.272 225.793 113.672 239.137 113.672ZM225.505 132.872H250.177C250.177 123.272 246.433 114.824 238.465 114.824C230.977 114.824 226.465 120.584 225.505 132.872ZM293.051 148.328C293.051 152.552 290.939 156.296 287.771 158.792C285.275 160.808 281.147 162.056 276.923 162.056C273.467 162.056 269.627 160.808 266.747 158.6C264.155 156.68 262.139 153.896 260.699 150.824L261.755 150.248C263.291 153.128 265.211 155.336 267.515 156.968C270.011 158.792 273.275 159.752 276.923 159.752C278.939 159.752 281.915 159.08 283.547 157.928C285.851 156.392 287.195 153.992 287.195 151.208C287.195 146.216 282.683 143.72 278.939 141.704L272.219 138.056C265.403 134.216 262.427 131.048 262.427 125.672C262.427 116.744 270.203 113.672 276.155 113.672C280.475 113.672 285.083 114.92 289.115 117.32L288.539 121.928C286.619 119.048 282.491 114.824 276.347 114.824C271.067 114.824 268.571 118.568 268.571 122.216C268.571 126.344 270.779 128.36 272.891 129.704C274.811 130.856 277.499 132.2 279.707 133.256C287.291 137 293.051 140.648 293.051 148.328ZM334.213 159.752C335.749 159.752 337.285 158.024 337.861 154.76H339.013C338.149 160.52 335.269 162.056 331.909 162.056C327.013 162.056 324.613 158.6 324.613 152.168C315.877 161.288 310.021 162.056 306.373 162.056C298.693 162.056 295.141 157.736 295.141 152.264C295.141 140.552 312.133 135.848 322.117 134.312L324.613 133.928V129.032C324.613 119.816 322.117 114.824 312.613 114.824C309.637 114.824 306.853 115.688 304.645 117.032C301.957 118.76 300.229 121.544 300.229 124.424C300.229 125.96 300.325 127.112 300.613 127.976H299.365C299.173 127.208 298.981 125.864 298.981 124.424C298.981 121.544 300.613 118.28 304.165 116.072C306.469 114.632 309.733 113.672 313.189 113.672C322.501 113.672 331.237 116.936 331.237 129.032V154.472C331.237 156.968 331.717 159.752 334.213 159.752ZM324.613 150.632V135.08C312.997 137.192 302.917 141.032 302.917 151.016C302.917 156.872 306.469 158.984 310.501 158.984C315.205 158.984 321.541 154.088 324.613 150.632ZM380.521 161H373.897V129.896C373.897 116.552 367.465 115.976 362.857 115.976C359.209 115.976 354.505 118.088 350.953 120.296V161H344.329V115.784L350.953 113.48V118.952C356.713 114.92 361.801 113.672 365.641 113.672C379.657 113.672 380.521 123.656 380.521 131.432V161ZM410.531 159.752C413.603 159.752 418.595 158.024 421.859 150.44L422.915 150.92C420.995 156.2 416.483 162.056 408.803 162.056C399.971 162.056 395.363 156.968 395.363 148.04V115.976H385.763V114.824H388.643C397.763 113.288 400.643 102.44 400.739 93.8H401.987V114.824H404.579C411.011 114.824 415.235 114.44 417.827 113.864L418.307 115.976H401.987V149.48C401.987 157.448 406.211 159.752 410.531 159.752ZM502.928 161H494.768V125.672H456.368V161H448.208V91.592H456.368V124.52H494.768V91.592H502.928V161ZM522.992 161H516.368V115.688L522.992 113.48V161ZM524.432 99.848C524.432 102.344 522.608 104.648 519.632 104.648C516.752 104.648 514.832 102.344 514.832 99.848C514.832 97.256 516.752 95.048 519.632 95.048C522.608 95.048 524.432 97.256 524.432 99.848ZM563.502 115.688C564.174 114.152 565.038 112.328 566.094 110.504C568.014 107.24 570.414 105.704 573.774 105.704C575.598 105.704 577.326 106.472 578.286 106.952L577.71 110.12C576.558 109.064 574.734 107.528 572.622 107.528C570.894 107.528 568.974 108.104 567.342 110.696C566.382 112.136 565.23 114.728 564.75 116.168C570.03 118.664 574.062 122.216 574.062 128.936C574.062 141.8 561.102 145.16 552.846 145.16H551.022C549.006 145.16 546.318 145.256 544.59 145.544C541.614 146.024 540.654 147.752 540.654 149.192C540.654 153.032 546.222 154.184 550.254 154.952L558.606 156.488C567.438 158.12 576.75 161.288 576.75 169.448C576.75 175.976 572.142 183.272 552.846 183.272C532.59 183.272 528.75 176.072 528.75 170.984C528.75 165.896 532.11 160.904 542.478 158.888C539.022 157.736 536.142 155.432 536.142 151.592C536.142 147.848 538.734 144.776 544.59 144.2C536.718 141.704 532.11 135.944 532.11 128.936C532.11 119.432 540.27 113.672 553.038 113.672C556.59 113.672 560.334 114.344 563.502 115.688ZM566.286 129.128C566.286 117.896 559.95 114.824 552.654 114.824C541.998 114.824 539.886 123.368 539.886 129.896C539.886 133.256 541.326 144.008 552.75 144.008C562.062 144.008 566.286 136.712 566.286 129.128ZM571.374 171.656C571.374 168.296 568.302 163.88 558.51 162.056C553.806 161.192 549.102 160.328 544.494 159.56C538.83 160.904 533.742 164.84 533.742 170.312C533.742 176.936 538.254 182.12 553.23 182.12C565.614 182.12 571.374 177.704 571.374 171.656ZM619.313 161H612.689V129.896C612.689 116.552 606.257 115.976 601.649 115.976C598.001 115.976 593.297 118.088 589.745 120.296V161H583.121V87.752L589.745 85.544V118.952C595.505 114.92 600.593 113.672 604.433 113.672C618.449 113.672 619.313 123.656 619.313 131.432V161ZM47.688 234.624C47.688 244.512 39.24 253.344 24.456 253.344C21.576 253.344 11.88 252.96 2.376 247.68L2.952 242.304C6.792 247.104 13.704 252.192 24.36 252.192C35.976 252.192 40.68 245.664 40.68 238.848C40.68 230.304 32.136 223.968 22.536 219.072C12.168 213.504 2.76 207.936 2.76 197.472C2.76 188.928 8.808 181.056 23.784 181.056C31.464 181.056 37.608 183.072 42.504 185.76L41.928 191.136C38.376 186.144 32.616 182.208 23.784 182.208C12.84 182.208 9.672 187.68 9.672 193.056C9.672 202.368 17.928 207.072 27.336 211.872C37.224 217.152 47.688 223.296 47.688 234.624ZM77.1765 250.752C83.1285 250.752 89.1765 247.392 92.5365 239.712L93.5925 240.192C91.3845 245.28 86.9685 253.056 75.5445 253.056C63.5445 253.056 53.7525 244.416 53.7525 229.344C53.7525 216.768 61.0485 204.672 76.8885 204.672C81.0165 204.672 84.3765 205.44 87.7365 208.032C90.4245 210.144 91.9605 213.408 91.9605 216.672C91.9605 218.208 91.8645 219.744 91.3845 221.664H90.1365C90.7125 219.84 90.7125 217.824 90.7125 216.768C90.7125 214.176 89.2725 211.008 86.8725 208.992C83.8965 206.496 80.3445 205.824 76.5045 205.824C68.8245 205.824 61.5285 211.296 61.5285 229.344C61.5285 244.32 68.6325 250.752 77.1765 250.752ZM135.447 252H128.823V220.896C128.823 207.552 122.391 206.976 117.783 206.976C114.135 206.976 109.431 209.088 105.879 211.296V252H99.255V178.752L105.879 176.544V209.952C111.639 205.92 116.727 204.672 120.567 204.672C134.583 204.672 135.447 214.656 135.447 222.432V252ZM189.457 228.96C189.457 243.456 179.761 253.056 166.513 253.056C153.361 253.056 143.569 243.648 143.569 228.96C143.569 212.736 153.361 204.672 166.513 204.672C179.761 204.672 189.457 212.064 189.457 228.96ZM181.681 228.96C181.681 211.2 174.193 205.824 166.513 205.824C158.833 205.824 151.345 211.2 151.345 228.96C151.345 246.624 158.833 251.904 166.513 251.904C174.193 251.904 181.681 246.624 181.681 228.96ZM241.068 228.96C241.068 243.456 231.372 253.056 218.124 253.056C204.972 253.056 195.18 243.648 195.18 228.96C195.18 212.736 204.972 204.672 218.124 204.672C231.372 204.672 241.068 212.064 241.068 228.96ZM233.292 228.96C233.292 211.2 225.804 205.824 218.124 205.824C210.444 205.824 202.956 211.2 202.956 228.96C202.956 246.624 210.444 251.904 218.124 251.904C225.804 251.904 233.292 246.624 233.292 228.96ZM249.214 178.752L255.838 176.544V252H249.214V178.752ZM276.188 188.352C276.188 195.072 272.06 202.272 266.972 206.88L266.108 206.016C270.236 201.792 272.06 197.664 272.06 194.784C272.06 192.096 270.716 191.424 268.7 190.08C266.876 188.928 265.724 187.68 265.724 185.664C265.724 183.264 267.644 181.344 270.62 181.344C273.692 181.344 276.188 183.648 276.188 188.352ZM314.381 239.328C314.381 243.552 312.269 247.296 309.101 249.792C306.605 251.808 302.477 253.056 298.253 253.056C294.797 253.056 290.957 251.808 288.077 249.6C285.485 247.68 283.469 244.896 282.029 241.824L283.085 241.248C284.621 244.128 286.541 246.336 288.845 247.968C291.341 249.792 294.605 250.752 298.253 250.752C300.269 250.752 303.245 250.08 304.877 248.928C307.181 247.392 308.525 244.992 308.525 242.208C308.525 237.216 304.013 234.72 300.269 232.704L293.549 229.056C286.733 225.216 283.757 222.048 283.757 216.672C283.757 207.744 291.533 204.672 297.485 204.672C301.805 204.672 306.413 205.92 310.445 208.32L309.869 212.928C307.949 210.048 303.821 205.824 297.677 205.824C292.397 205.824 289.901 209.568 289.901 213.216C289.901 217.344 292.109 219.36 294.221 220.704C296.141 221.856 298.829 223.2 301.037 224.256C308.621 228 314.381 231.648 314.381 239.328ZM340.628 206.688L347.252 204.48V210.72C350.324 207.936 355.508 204.672 361.46 204.672C370.868 204.672 382.868 210.24 382.868 228.768C382.868 242.016 374.708 252.864 360.212 253.056C356.372 253.056 351.476 252.288 347.252 249.6V268.032V268.896V273.312H340.628V206.688ZM375.092 229.056C375.092 213.6 369.044 206.976 359.156 206.976C355.316 206.976 350.612 209.472 347.252 212.064V248.352C349.652 249.792 353.012 250.752 358.004 250.752C367.604 250.752 375.092 243.264 375.092 229.056ZM391.02 206.688L397.644 204.48V211.104C400.332 208.224 404.46 204.672 409.836 204.672C411.852 204.672 413.772 204.768 416.076 206.112L415.308 210.144C413.196 207.744 410.316 206.976 408.492 206.976C404.652 206.976 401.292 208.704 397.644 212.448V252H391.02V206.688ZM439.867 204.672C452.443 204.672 458.107 215.136 458.299 225.024H426.235C426.331 247.392 434.587 250.752 441.307 250.752C447.259 250.752 452.539 248.064 456.859 241.248L457.819 241.92C454.171 248.256 448.699 253.056 439.483 253.056C430.843 253.056 418.459 247.68 418.459 229.152C418.459 214.272 426.523 204.672 439.867 204.672ZM426.235 223.872H450.907C450.907 214.272 447.163 205.824 439.195 205.824C431.707 205.824 427.195 211.584 426.235 223.872ZM485.621 204.672C493.301 204.672 496.277 208.128 497.621 210.24C501.845 207.36 507.605 204.672 512.981 204.672C518.069 204.672 521.813 206.304 524.021 208.608C527.765 212.448 527.573 218.112 527.573 221.568V252H520.949V221.376C521.237 213.504 519.605 206.976 510.005 206.976C506.837 206.976 502.037 208.8 498.197 211.392C499.061 213.12 499.829 215.424 499.829 219.84V252H493.205V219.84C493.205 209.568 488.789 206.976 482.645 206.976C479.573 206.976 475.349 208.416 472.085 210.624V252H465.461V206.784L472.085 204.48V209.28C477.461 205.248 483.413 204.672 485.621 204.672ZM545.821 252H539.197V206.688L545.821 204.48V252ZM547.261 190.848C547.261 193.344 545.437 195.648 542.461 195.648C539.581 195.648 537.661 193.344 537.661 190.848C537.661 188.256 539.581 186.048 542.461 186.048C545.437 186.048 547.261 188.256 547.261 190.848ZM575.388 204.672C587.964 204.672 593.628 215.136 593.82 225.024H561.756C561.852 247.392 570.108 250.752 576.828 250.752C582.78 250.752 588.06 248.064 592.38 241.248L593.34 241.92C589.692 248.256 584.22 253.056 575.004 253.056C566.364 253.056 553.98 247.68 553.98 229.152C553.98 214.272 562.044 204.672 575.388 204.672ZM561.756 223.872H586.428C586.428 214.272 582.684 205.824 574.716 205.824C567.228 205.824 562.716 211.584 561.756 223.872ZM600.983 206.688L607.607 204.48V211.104C610.295 208.224 614.423 204.672 619.799 204.672C621.815 204.672 623.735 204.768 626.039 206.112L625.271 210.144C623.159 207.744 620.279 206.976 618.455 206.976C614.615 206.976 611.255 208.704 607.607 212.448V252H600.983V206.688ZM39.912 343H33.288V311.896C33.288 298.552 26.856 297.976 22.248 297.976C18.6 297.976 13.896 300.088 10.344 302.296V343H3.72V269.752L10.344 267.544V300.952C16.104 296.92 21.192 295.672 25.032 295.672C39.048 295.672 39.912 305.656 39.912 313.432V343ZM93.9218 319.96C93.9218 334.456 84.2258 344.056 70.9778 344.056C57.8258 344.056 48.0338 334.648 48.0338 319.96C48.0338 303.736 57.8258 295.672 70.9778 295.672C84.2258 295.672 93.9218 303.064 93.9218 319.96ZM86.1458 319.96C86.1458 302.2 78.6578 296.824 70.9778 296.824C63.2978 296.824 55.8098 302.2 55.8098 319.96C55.8098 337.624 63.2978 342.904 70.9778 342.904C78.6578 342.904 86.1458 337.624 86.1458 319.96ZM138.26 343H131.636V311.896C131.636 298.552 125.204 297.976 120.596 297.976C116.948 297.976 112.244 300.088 108.692 302.296V343H102.068V297.784L108.692 295.48V300.952C114.452 296.92 119.54 295.672 123.38 295.672C137.396 295.672 138.26 305.656 138.26 313.432V343ZM192.269 319.96C192.269 334.456 182.573 344.056 169.325 344.056C156.173 344.056 146.381 334.648 146.381 319.96C146.381 303.736 156.173 295.672 169.325 295.672C182.573 295.672 192.269 303.064 192.269 319.96ZM184.493 319.96C184.493 302.2 177.005 296.824 169.325 296.824C161.645 296.824 154.157 302.2 154.157 319.96C154.157 337.624 161.645 342.904 169.325 342.904C177.005 342.904 184.493 337.624 184.493 319.96ZM200.415 297.688L207.039 295.48V302.104C209.727 299.224 213.855 295.672 219.231 295.672C221.247 295.672 223.167 295.768 225.471 297.112L224.703 301.144C222.591 298.744 219.711 297.976 217.887 297.976C214.047 297.976 210.687 299.704 207.039 303.448V343H200.415V297.688ZM280.02 330.328C280.02 334.552 277.908 338.296 274.74 340.792C272.244 342.808 268.116 344.056 263.892 344.056C260.436 344.056 256.596 342.808 253.716 340.6C251.124 338.68 249.108 335.896 247.668 332.824L248.724 332.248C250.26 335.128 252.18 337.336 254.484 338.968C256.98 340.792 260.244 341.752 263.892 341.752C265.908 341.752 268.884 341.08 270.516 339.928C272.82 338.392 274.164 335.992 274.164 333.208C274.164 328.216 269.652 325.72 265.908 323.704L259.188 320.056C252.372 316.216 249.396 313.048 249.396 307.672C249.396 298.744 257.172 295.672 263.124 295.672C267.444 295.672 272.052 296.92 276.084 299.32L275.508 303.928C273.588 301.048 269.46 296.824 263.316 296.824C258.036 296.824 255.54 300.568 255.54 304.216C255.54 308.344 257.748 310.36 259.86 311.704C261.78 312.856 264.468 314.2 266.676 315.256C274.26 319 280.02 322.648 280.02 330.328ZM329.245 319.96C329.245 334.456 319.55 344.056 306.301 344.056C293.149 344.056 283.357 334.648 283.357 319.96C283.357 303.736 293.149 295.672 306.301 295.672C319.55 295.672 329.245 303.064 329.245 319.96ZM321.469 319.96C321.469 302.2 313.981 296.824 306.301 296.824C298.621 296.824 291.133 302.2 291.133 319.96C291.133 337.624 298.621 342.904 306.301 342.904C313.981 342.904 321.469 337.624 321.469 319.96ZM358.393 341.752C364.345 341.752 370.393 338.392 373.753 330.712L374.809 331.192C372.601 336.28 368.185 344.056 356.761 344.056C344.761 344.056 334.969 335.416 334.969 320.344C334.969 307.768 342.265 295.672 358.105 295.672C362.233 295.672 365.593 296.44 368.953 299.032C371.641 301.144 373.177 304.408 373.177 307.672C373.177 309.208 373.081 310.744 372.601 312.664H371.353C371.929 310.84 371.929 308.824 371.929 307.768C371.929 305.176 370.489 302.008 368.089 299.992C365.113 297.496 361.561 296.824 357.721 296.824C350.041 296.824 342.745 302.296 342.745 320.344C342.745 335.32 349.849 341.752 358.393 341.752ZM388.595 343H381.971V297.688L388.595 295.48V343ZM390.035 281.848C390.035 284.344 388.211 286.648 385.235 286.648C382.355 286.648 380.435 284.344 380.435 281.848C380.435 279.256 382.355 277.048 385.235 277.048C388.211 277.048 390.035 279.256 390.035 281.848ZM418.162 295.672C430.738 295.672 436.402 306.136 436.594 316.024H404.53C404.626 338.392 412.882 341.752 419.602 341.752C425.554 341.752 430.834 339.064 435.154 332.248L436.114 332.92C432.466 339.256 426.994 344.056 417.778 344.056C409.138 344.056 396.754 338.68 396.754 320.152C396.754 305.272 404.818 295.672 418.162 295.672ZM404.53 314.872H429.202C429.202 305.272 425.458 296.824 417.49 296.824C410.002 296.824 405.49 302.584 404.53 314.872ZM462.284 341.752C465.356 341.752 470.348 340.024 473.612 332.44L474.668 332.92C472.748 338.2 468.236 344.056 460.556 344.056C451.724 344.056 447.116 338.968 447.116 330.04V297.976H437.516V296.824H440.396C449.516 295.288 452.396 284.44 452.492 275.8H453.74V296.824H456.332C462.764 296.824 466.988 296.44 469.58 295.864L470.06 297.976H453.74V331.48C453.74 339.448 457.964 341.752 462.284 341.752ZM495.36 336.952C505.344 309.88 505.92 307.672 508.992 296.824H512.256C509.184 304.024 503.616 318.328 499.776 328.792C497.76 334.264 495.36 340.12 491.904 348.472C489.984 353.176 487.968 357.88 485.28 361.144C483.168 363.544 480.576 365.272 476.832 365.272C474.048 365.272 472.32 364.408 470.88 363.64L471.456 359.608C474.24 362.488 476.544 362.968 478.176 362.968C480.672 362.968 482.304 362.296 484.224 360.184C486.528 357.112 489.504 351.64 491.808 344.632C485.76 331.096 476.448 310.552 470.4 296.824H477.696L495.36 336.952ZM519.416 339.64C519.416 342.232 517.496 344.44 514.616 344.44C512.024 344.44 509.816 342.424 509.816 339.64C509.816 336.952 512.024 334.84 514.616 334.84C517.496 334.84 519.416 337.048 519.416 339.64Z" fill="#B6B684" style="fill:#B6B684;fill:color(display-p3 0.7137 0.7137 0.5176);fill-opacity:1;"/>
</svg>
