<svg width="24" height="24" viewBox="0 0 24 24" fill="none" xmlns="http://www.w3.org/2000/svg">
<path d="M6.74063 15.4639C3.79757 12.3328 4.47494 8.76858 7.70608 6.25035C9.0219 5.21774 10.7815 3.90533 9.77713 2C10.5333 2.36037 11.1276 2.9261 11.466 3.60776C11.8044 4.28943 11.8676 5.04816 11.6457 5.76402C10.8144 5.93455 10.0315 6.24622 9.3435 6.68055C8.65554 7.11487 8.07655 7.663 7.64085 8.29241C7.20516 8.92182 6.92164 9.6197 6.80713 10.3446C6.69261 11.0696 6.74943 11.8068 6.97421 12.5126C6.77984 11.2933 7.04783 10.0528 7.73878 8.97353C8.42972 7.89425 9.50715 7.03314 10.8127 6.51683C12.061 6.14654 13.3536 5.89629 14.6667 5.77069C16.5742 5.59081 17.6642 4.60484 17.0569 3.25245C19.0423 4.69144 18.3105 7.28962 16.2783 8.66199C14.5265 9.88113 12.4633 9.73457 11.3421 12.3194C11.8055 11.7591 12.3945 11.2833 13.0749 10.9195C13.7553 10.5558 14.5134 10.3116 15.3051 10.2009C16.5509 10.0344 18.6219 9.3082 18.4195 7.8359C20.2258 9.75456 19.1436 12.5526 15.7645 13.1122C14.7912 13.2721 9.83941 13.0389 10.182 16.9362C10.509 16.27 10.9606 14.9842 12.1518 14.791C13.8725 14.5112 13.709 14.5112 14.2151 13.5785C14.7134 16.783 11.2487 18.4285 8.76496 16.9628L6.74063 15.4639Z" fill="#E8E8E8" fill-opacity="0.8" style="fill:#E8E8E8;fill:color(display-p3 0.9086 0.9086 0.9086);fill-opacity:0.8;"/>
<path d="M4 18.4085H20L17.6954 21H6.31241L4 18.4085Z" fill="#E8E8E8" fill-opacity="0.8" style="fill:#E8E8E8;fill:color(display-p3 0.9086 0.9086 0.9086);fill-opacity:0.8;"/>
</svg>
