<?xml version="1.0" encoding="UTF-8" standalone="no"?>
<svg
   width="888"
   height="299"
   viewBox="0 0 888 299"
   fill="none"
   version="1.1"
   id="svg2"
   xmlns="http://www.w3.org/2000/svg"
   xmlns:svg="http://www.w3.org/2000/svg">
  <defs
     id="defs2" />
  <g
     fill="#E8E8E8"
     fill-opacity="0.8"
     id="g2">
    <path
       d="M 89.114258,219 H 230.25195 v -35.1123 h -85.37109 c 6.54053,-6.19629 13.31055,-12.73682 19.27734,-18.58887 l 26.04737,-26.6211 V 124.44922 L 163.12549,97.139648 c -4.58985,-4.360351 -9.63867,-9.179687 -15.26123,-14.113769 9.06494,0 18.12988,0.114746 27.19482,0.114746 h 53.35694 V 48.02832 H 93.015625 v 30.407715 l 38.898925,38.669435 c 4.4751,4.36035 9.98291,9.52392 15.49072,14.57275 -5.50781,5.16358 -11.01562,10.32715 -15.49072,14.80225 L 89.114258,189.625 Z"
       id="text1"
       style="font-weight:800;font-size:235px;font-family:'Inter Display', Inter, sans-serif"
       aria-label="Σ" />
    <path
       d="m 245.6875,219 h 38.29687 V 101.4375 H 245.6875 Z M 264.72461,89.970703 c 12.35742,0 21.15234,-8.126953 21.15234,-19.371094 0,-11.24414 -8.79492,-19.259765 -21.15234,-19.259765 -12.24609,0 -21.04102,8.015625 -21.04102,19.259765 0,11.244141 8.79493,19.371094 21.04102,19.371094 z m 98.63672,177.123047 c 36.73828,0 59.89453,-16.25391 59.89453,-54.55078 V 101.4375 h -38.07422 v 16.47656 h -0.11133 c -7.34765,-12.35742 -18.81445,-19.037107 -34.0664,-19.037107 -29.83594,0 -50.54297,25.160157 -50.54297,60.117187 0,34.51172 20.03906,59.22656 50.87695,59.22656 15.36328,0 27.49805,-6.12304 33.73242,-20.03906 h 0.11133 v 18.14648 c 0,15.58594 -7.57031,23.60157 -21.82031,23.60157 -11.02149,0 -18.48047,-4.45313 -20.48438,-11.80078 H 306.25 c 3.5625,22.59961 20.92969,38.96484 57.11133,38.96484 z m -1.33594,-78.93164 c -14.02734,0 -22.71094,-11.13281 -22.71094,-29.83594 0,-18.5918 8.6836,-29.72461 22.71094,-29.72461 14.47266,0 24.38086,11.68946 24.38086,29.72461 0,18.14649 -9.9082,29.83594 -24.38086,29.83594 z M 444.63086,219 h 38.29687 v -68.4668 c 0,-13.02539 7.68164,-20.5957 18.14649,-20.5957 10.35351,0 17.36719,7.34766 17.36719,18.81445 V 219 h 36.62695 v -69.24609 c 0,-11.91211 6.90234,-19.81641 17.8125,-19.81641 10.35351,0 17.70117,6.79102 17.70117,19.25977 V 219 h 38.4082 v -78.26367 c 0,-26.16211 -16.58789,-41.859377 -39.74414,-41.859377 -16.81054,0 -31.72851,8.349607 -37.74023,23.712887 -4.78711,-15.36328 -18.36914,-23.712887 -34.06641,-23.712887 -15.25195,0 -29.16797,7.792967 -35.95898,24.603517 V 101.4375 h -36.84961 z m 241.58203,2.00391 c 16.58789,0 27.16406,-5.78907 34.17773,-18.48047 h 0.44532 V 219 h 37.40625 v -79.1543 c 0,-25.93945 -18.81446,-40.968747 -52.99219,-40.968747 -34.06641,0 -53.32617,15.140627 -54.99609,40.634767 h 35.625 c 0.77929,-8.01563 7.34765,-13.13672 18.03515,-13.13672 10.13086,0 16.36524,4.78711 16.36524,11.80078 v 0.55664 c 0,7.01367 -7.68164,8.6836 -28.72266,10.46485 -25.04883,2.0039 -45.64453,10.57617 -45.64453,36.96093 0,23.37891 16.81055,34.84571 40.30078,34.84571 z m 11.68945,-25.04883 c -9.35156,0 -15.69726,-4.3418 -15.69726,-11.57813 0,-7.68164 7.34765,-11.91211 17.58984,-13.4707 9.46289,-1.55859 16.69922,-3.00586 20.81836,-4.89844 v 10.6875 c 0,11.57813 -9.9082,19.25977 -22.71094,19.25977 z"
       id="text2"
       style="font-weight:800;font-size:228px;font-family:'Inter Display', Inter, sans-serif"
       aria-label="igma" />
  </g>
</svg>
