<?xml version="1.0" encoding="UTF-8" standalone="no"?>
<!-- Created with Inkscape (http://www.inkscape.org/) -->

<svg
   width="29.574333mm"
   height="10.655648mm"
   viewBox="0 0 29.574333 10.655648"
   version="1.1"
   id="svg1"
   xmlns="http://www.w3.org/2000/svg"
   xmlns:svg="http://www.w3.org/2000/svg">
  <defs
     id="defs1" />
  <g
     id="layer1"
     transform="translate(-66.398049,-78.658898)">
    <path
       style="font-weight:bold;font-size:10.5833px;line-height:1.25;font-family:'Comic Sans MS';-inkscape-font-specification:'Comic Sans MS';letter-spacing:0px;fill:#111111;fill-opacity:1;stroke-width:0.264583"
       d="m 69.100716,86.715227 c -0.875051,0 -1.564068,-0.194647 -2.06705,-0.583942 -0.423745,-0.323838 -0.635618,-0.69763 -0.635618,-1.121375 0,-0.217041 0.06546,-0.396185 0.196369,-0.537433 0.130913,-0.144694 0.31178,-0.217041 0.542601,-0.217041 0.310058,0 0.537434,0.158474 0.682127,0.475422 0.19637,0.423745 0.640786,0.635618 1.333248,0.635618 0.592554,0 1.16616,-0.129191 1.720819,-0.387572 0.575329,-0.265271 0.862994,-0.556381 0.862994,-0.873329 0,-0.434081 -0.179144,-0.720023 -0.537433,-0.857826 -0.254936,-0.09991 -0.766531,-0.158474 -1.534785,-0.175699 -0.596,-0.01378 -1.129988,-0.125745 -1.601965,-0.335896 -0.637341,-0.285942 -0.950843,-0.695907 -0.940508,-1.229895 0.01033,-0.671791 0.368622,-1.286739 1.074867,-1.844843 0.706242,-0.561549 1.484831,-0.842323 2.335767,-0.842323 0.337618,0 0.754473,0.07751 1.250566,0.232543 0.61667,0.192925 0.925005,0.415133 0.925005,0.666624 0,0.179145 -0.06201,0.337619 -0.186035,0.475422 -0.137803,0.155029 -0.315225,0.232543 -0.532265,0.232543 -0.161919,0 -0.404798,-0.03445 -0.728636,-0.103353 -0.320393,-0.0689 -0.563271,-0.103352 -0.728635,-0.103352 -0.444416,0.0035 -0.866439,0.110264 -1.266069,0.320393 -0.41341,0.213595 -0.620115,0.446138 -0.620115,0.697629 0,0.130913 0.06201,0.239434 0.186035,0.325561 0.127468,0.08268 0.316948,0.141248 0.568439,0.175699 0.440971,0.02411 0.880219,0.04823 1.317745,0.07235 0.764809,0.05857 1.369421,0.273884 1.813837,0.645953 0.489202,0.413411 0.733803,0.985295 0.733803,1.715652 0,0.888832 -0.506428,1.562346 -1.519283,2.020542 -0.771699,0.347954 -1.65364,0.521931 -2.645825,0.521931 z m 6.092632,-6.526713 c -0.220485,0 -0.411687,-0.07407 -0.573606,-0.222208 -0.161919,-0.148139 -0.242879,-0.329006 -0.242879,-0.542601 0,-0.213595 0.08096,-0.394461 0.242879,-0.5426 0.161919,-0.148139 0.353121,-0.222208 0.573606,-0.222208 0.220485,0 0.409965,0.07407 0.568439,0.222208 0.161919,0.148139 0.242879,0.329005 0.242879,0.5426 0,0.213595 -0.08096,0.394462 -0.242879,0.542601 -0.158474,0.148139 -0.347954,0.222208 -0.568439,0.222208 z m 0.439248,3.787871 c 0,0.196369 0.0052,0.511594 0.0155,0.945675 0.01378,0.434081 0.02067,0.749306 0.02067,0.945676 0,0.199815 -0.06718,0.365179 -0.201538,0.496092 -0.134358,0.127468 -0.30489,0.191202 -0.511595,0.191202 -0.206705,0 -0.377236,-0.06373 -0.511595,-0.191202 -0.134358,-0.130913 -0.201537,-0.296277 -0.201537,-0.496092 0,-0.19637 -0.0069,-0.511595 -0.02067,-0.945676 -0.01033,-0.434081 -0.0155,-0.749306 -0.0155,-0.945675 0,-0.306613 0.01723,-0.69074 0.05168,-1.152381 0.03445,-0.461641 0.05168,-0.845768 0.05168,-1.152381 0,-0.199815 0.06718,-0.363456 0.201537,-0.490925 0.134359,-0.130913 0.304891,-0.196369 0.511596,-0.196369 0.206705,0 0.377236,0.06546 0.511595,0.196369 0.134358,0.127469 0.201537,0.29111 0.201537,0.490925 0,0.306613 -0.01723,0.69074 -0.05168,1.152381 -0.03445,0.461641 -0.05168,0.845768 -0.05168,1.152381 z m 6.139141,-0.656289 c -0.144693,0.809595 -0.23082,1.663976 -0.258381,2.563143 -0.03445,1.112762 -0.220488,1.920634 -0.558104,2.423617 -0.451306,0.671791 -1.250566,1.007687 -2.397779,1.007687 -1.340137,0 -2.010206,-0.265271 -2.010206,-0.795814 0,-0.18948 0.06029,-0.342786 0.180867,-0.459919 0.120578,-0.117133 0.279052,-0.1757 0.475421,-0.1757 0.155029,0 0.377237,0.02928 0.666624,0.08785 0.289387,0.05857 0.546046,0.08785 0.769977,0.08785 0.513317,0 0.892276,-0.156751 1.136877,-0.470254 0.234266,-0.306613 0.37207,-0.794092 0.413411,-1.462439 -0.175699,0.179145 -0.373792,0.313503 -0.594278,0.403075 -0.220485,0.08957 -0.461641,0.134358 -0.723467,0.134358 -0.685572,0 -1.243676,-0.222208 -1.674311,-0.666623 -0.427191,-0.447861 -0.640786,-1.019745 -0.640786,-1.715652 0,-0.937063 0.285942,-1.694982 0.857826,-2.273756 0.592555,-0.599445 1.393537,-0.899167 2.402946,-0.899167 0.323838,0 0.60289,0.03962 0.837156,0.118855 0.234266,0.07924 0.423746,0.199815 0.568439,0.361734 0.437525,0.05167 0.656288,0.310055 0.656288,0.775144 0,0.230821 -0.03617,0.549491 -0.10852,0.956011 z m -2.005039,-1.033525 c -0.582219,0 -1.035248,0.191202 -1.359086,0.573606 -0.289387,0.347953 -0.43408,0.799259 -0.43408,1.353918 0,0.409965 0.07751,0.718301 0.232543,0.925006 0.155029,0.206705 0.387572,0.310057 0.697629,0.310057 0.282497,0 0.566717,-0.163641 0.852659,-0.490924 0.268717,-0.310058 0.422023,-0.616671 0.459919,-0.919838 0.06545,-0.330728 0.141245,-0.845768 0.227375,-1.54512 -0.117133,-0.0689 -0.232543,-0.120578 -0.346231,-0.155029 -0.113687,-0.03445 -0.22393,-0.05168 -0.330728,-0.05168 z m 4.170275,-0.459919 c 0.520208,-0.60289 1.012855,-0.904335 1.477941,-0.904335 0.530543,0 0.919838,0.201537 1.167884,0.604612 0.21015,-0.186034 0.442693,-0.32556 0.69763,-0.418577 0.254936,-0.09302 0.530543,-0.139526 0.82682,-0.139526 0.675237,0 1.133433,0.335896 1.374589,1.007687 0.04823,0.137803 0.122303,0.604612 0.222208,1.400427 0.09646,0.558103 0.220485,1.488276 0.372069,2.790518 0.01378,0.19637 -0.0534,0.358289 -0.201538,0.485757 -0.148139,0.127468 -0.322115,0.191202 -0.52193,0.191202 -0.396185,0 -0.628728,-0.19637 -0.69763,-0.589109 -0.06201,-0.354844 -0.125747,-0.856104 -0.191202,-1.503779 -0.0689,-0.709688 -0.125745,-1.21267 -0.170532,-1.508947 -0.09302,-0.616671 -0.211873,-0.925006 -0.356566,-0.925006 -0.07924,0 -0.260104,0.07924 -0.542601,0.237711 -0.282497,0.158474 -0.489202,0.294555 -0.620115,0.408243 0,0.392739 0.04651,0.957733 0.139526,1.694981 0.09646,0.754474 0.144694,1.319468 0.144694,1.694982 0,0.19637 -0.06718,0.360011 -0.201538,0.490924 -0.134358,0.130913 -0.30489,0.19637 -0.511595,0.19637 -0.206705,0 -0.377236,-0.06546 -0.511595,-0.19637 -0.134358,-0.130913 -0.201537,-0.294554 -0.201537,-0.490924 0,-0.39274 -0.04306,-0.969792 -0.129191,-1.731155 -0.08268,-0.764809 -0.124023,-1.343583 -0.124023,-1.736323 0,-0.220485 -0.01895,-0.396185 -0.05684,-0.527098 -0.39963,0.230821 -0.800982,0.614948 -1.204057,1.152381 -0.01723,0.02411 -0.04651,0.06029 -0.08785,0.10852 -0.01378,0.695907 -0.02067,1.241953 -0.02067,1.638138 0,0.09646 -0.0034,0.227376 -0.01033,0.39274 -0.0069,0.161919 -0.01034,0.282497 -0.01034,0.361734 0,0.186034 -0.07579,0.33245 -0.227375,0.439248 -0.137803,0.09991 -0.308335,0.149861 -0.511595,0.149861 -0.292833,0 -0.490925,-0.127468 -0.594277,-0.382404 -0.07235,-0.172255 -0.108521,-0.446139 -0.108521,-0.821653 v -1.922357 c 0,-0.172255 -0.0069,-0.423746 -0.02067,-0.754474 -0.01378,-0.334173 -0.02067,-0.587387 -0.02067,-0.759641 0,-0.306613 0.05512,-0.583942 0.165364,-0.831988 0.134359,-0.310057 0.323838,-0.465086 0.568439,-0.465086 0.192925,0 0.36518,0.07579 0.516763,0.227375 0.151584,0.148139 0.227376,0.31178 0.227376,0.490925 0,-0.07235 -0.0155,0.07579 -0.04651,0.444416 z m 11.342941,4.914413 c -0.158474,0 -0.409965,-0.172254 -0.754474,-0.516763 -0.316948,0.151584 -0.596,0.265272 -0.837155,0.341064 -0.241156,0.07924 -0.446139,0.118855 -0.614948,0.118855 -0.830265,0 -1.453826,-0.222208 -1.870681,-0.666624 -0.41341,-0.444416 -0.620115,-1.109317 -0.620115,-1.994704 0,-0.830265 0.306612,-1.539953 0.919837,-2.129062 0.613225,-0.592555 1.347028,-0.888832 2.201409,-0.888832 0.327283,0 0.706243,0.09302 1.136878,0.279052 0.520208,0.223931 0.780312,0.484035 0.780312,0.780312 0,0.124023 -0.03962,0.232543 -0.118855,0.32556 -0.03445,0.137803 -0.06201,0.31178 -0.08268,0.52193 -0.01723,0.206705 -0.02584,0.449584 -0.02584,0.728636 0,0.658011 0.04651,1.13171 0.139526,1.421097 0.01033,0.03101 0.08957,0.210151 0.237711,0.537433 0.134359,0.296277 0.201538,0.465087 0.201538,0.506428 0,0.182589 -0.07062,0.334173 -0.211873,0.454751 -0.137803,0.120578 -0.298,0.180867 -0.480589,0.180867 z m -1.281572,-3.544992 c 0,-0.110243 0.0069,-0.235988 0.02067,-0.377237 0.01723,-0.144693 0.04134,-0.30489 0.07235,-0.480589 -0.0689,-0.03445 -0.130913,-0.05857 -0.186034,-0.07235 -0.05168,-0.01723 -0.09647,-0.02584 -0.134358,-0.02584 -0.468532,0 -0.878497,0.184312 -1.229896,0.552936 -0.351399,0.365179 -0.527098,0.788924 -0.527098,1.271236 0,0.461641 0.08268,0.809595 0.248047,1.043861 0.165364,0.230821 0.41341,0.346231 0.744138,0.346231 0.213595,0 0.415133,-0.03445 0.604612,-0.103353 0.192925,-0.07235 0.373792,-0.177422 0.542601,-0.315225 -0.103353,-0.81993 -0.155029,-1.433155 -0.155029,-1.839675 z"
       id="text1"
       aria-label="Sigma" />
  </g>
</svg>
