<svg width="888" height="299" viewBox="0 0 888 299" fill="none" xmlns="http://www.w3.org/2000/svg">
<path d="M224.701 258V99.9652H254.911V114.817H255.603C263.213 104.374 274.282 96.7164 290.424 96.7164C321.786 96.7164 341.849 122.475 341.849 159.605C341.849 198.128 321.095 222.494 290.655 222.494C274.051 222.494 263.213 215.765 256.525 205.554H256.064V258H224.701ZM283.967 196.271C299.879 196.271 310.025 183.044 310.025 160.534C310.025 138.024 302.185 122.243 282.814 122.243C263.213 122.243 255.372 139.184 255.372 160.534C255.372 182.115 265.288 196.271 283.967 196.271Z" fill="#E8E8E8" fill-opacity="0.8"/>
<path d="M399.798 222.494C365.437 222.494 346.297 205.786 344.452 180.491H373.509C375.584 194.183 385.269 200.216 399.336 200.216C413.173 200.216 421.013 194.879 421.013 186.525C421.013 175.154 406.024 173.993 389.882 170.744C368.666 166.567 347.911 160.766 347.911 134.775C347.911 109.016 369.127 96.7164 396.108 96.7164C427.24 96.7164 444.535 112.265 446.841 136.167H418.477C417.093 123.404 409.022 118.762 395.647 118.762C383.425 118.762 375.353 123.404 375.353 131.99C375.353 142.201 391.035 143.129 407.869 146.61C427.701 150.787 449.608 156.356 449.608 184.204C449.608 208.106 429.315 222.494 399.798 222.494Z" fill="#E8E8E8" fill-opacity="0.8"/>
<path d="M459.144 219.013V99.9652H490.507V219.013H459.144ZM459.144 81.4002V53.0886H490.507V81.4002H459.144Z" fill="#E8E8E8" fill-opacity="0.8"/>
<path d="M506.564 219.013V53.0886H537.927V219.013H506.564Z" fill="#E8E8E8" fill-opacity="0.8"/>
<path d="M610 222.494C573.333 222.494 548.198 195.111 548.198 159.605C548.198 124.1 573.333 96.7164 610 96.7164C646.666 96.7164 671.802 124.1 671.802 159.605C671.802 195.111 646.666 222.494 610 222.494ZM610 198.36C629.14 198.36 639.978 182.812 639.978 159.605C639.978 136.399 629.14 120.619 610 120.619C590.629 120.619 580.021 136.399 580.021 159.605C580.021 182.812 590.629 198.36 610 198.36Z" fill="#E8E8E8" fill-opacity="0.8"/>
<path d="M712.439 99.9652V116.21H713.131C721.202 103.446 732.04 96.7164 748.183 96.7164C772.627 96.7164 789 115.281 789 141.272V219.013H757.638V145.914C757.638 133.15 750.258 124.1 737.114 124.1C723.277 124.1 713.131 135.239 713.131 151.483V219.013H681.768V99.9652H712.439Z" fill="#E8E8E8" fill-opacity="0.8"/>
<path d="M163.404 80.2399C157.254 80.2399 151.489 81.1682 146.108 83.0247C140.881 84.7265 136.269 87.3565 132.272 90.9148C128.429 94.3184 125.354 98.5729 123.048 103.678C120.742 108.784 119.358 114.585 118.897 121.083H190.154V149.859H118.666C119.127 156.511 120.434 162.467 122.587 167.728C124.739 172.988 127.66 177.474 131.35 181.187C135.193 184.746 139.805 187.453 145.186 189.309C150.567 191.166 156.793 192.094 163.865 192.094C171.244 192.094 178.624 191.321 186.003 189.774C193.536 188.226 201.684 186.061 210.447 183.276V212.748C202.607 215.687 194.92 217.853 187.387 219.245C179.854 220.638 171.321 221.334 161.789 221.334C143.495 221.334 128.429 217.853 116.591 210.891C104.907 203.775 96.2207 193.873 90.5324 181.187C84.8441 168.346 82 153.417 82 136.399C82 123.868 83.768 112.419 87.3039 102.054C90.9936 91.5336 96.3744 82.4832 103.446 74.9025C110.518 67.3217 119.204 61.4428 129.505 57.2657C139.805 53.0886 151.643 51 165.018 51C174.857 51 183.928 52.083 192.229 54.2489C200.531 56.2601 208.679 59.0448 216.674 62.6031L204.221 91.1469C197.456 88.2074 190.923 85.6547 184.619 83.4888C178.47 81.3229 171.398 80.2399 163.404 80.2399Z" fill="#E8E8E8" fill-opacity="0.8"/>
</svg>
